{"glyphs":{"0":{"ha":1073,"x_min":126,"x_max":1010,"o":"m 758 126 l 758 505 l 631 505 l 631 379 l 505 379 l 505 252 l 379 252 l 379 126 l 758 126 m 505 505 l 505 631 l 631 631 l 631 758 l 758 758 l 758 884 l 379 884 l 379 505 l 505 505 m 252 0 l 252 126 l 126 126 l 126 884 l 252 884 l 252 1010 l 884 1010 l 884 884 l 1010 884 l 1010 126 l 884 126 l 884 0 l 252 0 z "},"1":{"ha":694,"x_min":126,"x_max":631,"o":"m 126 0 l 126 126 l 252 126 l 252 758 l 126 758 l 126 884 l 252 884 l 252 1010 l 505 1010 l 505 126 l 631 126 l 631 0 l 126 0 z "},"2":{"ha":1073,"x_min":126,"x_max":1010,"o":"m 126 0 l 126 505 l 252 505 l 252 631 l 758 631 l 758 884 l 379 884 l 379 758 l 126 758 l 126 884 l 252 884 l 252 1010 l 884 1010 l 884 884 l 1010 884 l 1010 631 l 884 631 l 884 505 l 379 505 l 379 126 l 758 126 l 758 252 l 1010 252 l 1010 0 l 126 0 z "},"3":{"ha":1073,"x_min":126,"x_max":1010,"o":"m 252 0 l 252 126 l 126 126 l 126 252 l 379 252 l 379 126 l 758 126 l 758 505 l 379 505 l 379 631 l 505 631 l 505 758 l 631 758 l 631 884 l 126 884 l 126 1010 l 1010 1010 l 1010 884 l 884 884 l 884 758 l 758 758 l 758 631 l 884 631 l 884 505 l 1010 505 l 1010 126 l 884 126 l 884 0 l 252 0 z "},"4":{"ha":1073,"x_min":126,"x_max":1010,"o":"m 758 505 l 758 884 l 631 884 l 631 758 l 505 758 l 505 631 l 379 631 l 379 505 l 758 505 m 758 0 l 758 379 l 126 379 l 126 631 l 252 631 l 252 758 l 379 758 l 379 884 l 505 884 l 505 1010 l 1010 1010 l 1010 0 l 758 0 z "},"5":{"ha":1073,"x_min":126,"x_max":1010,"o":"m 252 0 l 252 126 l 126 126 l 126 252 l 379 252 l 379 126 l 758 126 l 758 505 l 126 505 l 126 1010 l 884 1010 l 884 884 l 379 884 l 379 631 l 884 631 l 884 505 l 1010 505 l 1010 126 l 884 126 l 884 0 l 252 0 z "},"6":{"ha":1073,"x_min":126,"x_max":1010,"o":"m 758 126 l 758 505 l 379 505 l 379 126 l 758 126 m 252 0 l 252 126 l 126 126 l 126 884 l 252 884 l 252 1010 l 884 1010 l 884 884 l 1010 884 l 1010 758 l 758 758 l 758 884 l 379 884 l 379 631 l 884 631 l 884 505 l 1010 505 l 1010 126 l 884 126 l 884 0 l 252 0 z "},"7":{"ha":1073,"x_min":126,"x_max":1010,"o":"m 379 0 l 379 505 l 505 505 l 505 631 l 631 631 l 631 758 l 758 758 l 758 884 l 379 884 l 379 758 l 126 758 l 126 1010 l 1010 1010 l 1010 758 l 884 758 l 884 631 l 758 631 l 758 505 l 631 505 l 631 0 l 379 0 z "},"8":{"ha":1073,"x_min":126,"x_max":1010,"o":"m 758 126 l 758 505 l 379 505 l 379 126 l 758 126 m 758 631 l 758 884 l 379 884 l 379 631 l 758 631 m 252 0 l 252 126 l 126 126 l 126 505 l 252 505 l 252 631 l 126 631 l 126 884 l 252 884 l 252 1010 l 884 1010 l 884 884 l 1010 884 l 1010 631 l 884 631 l 884 505 l 1010 505 l 1010 126 l 884 126 l 884 0 l 252 0 z "},"9":{"ha":1073,"x_min":126,"x_max":1010,"o":"m 758 505 l 758 884 l 379 884 l 379 505 l 758 505 m 252 0 l 252 126 l 126 126 l 126 252 l 379 252 l 379 126 l 758 126 l 758 379 l 252 379 l 252 505 l 126 505 l 126 884 l 252 884 l 252 1010 l 884 1010 l 884 884 l 1010 884 l 1010 126 l 884 126 l 884 0 l 252 0 z "}," ":{"ha":505,"x_min":0,"x_max":0,"o":""},"!":{"ha":442,"x_min":126,"x_max":379,"o":"m 126 0 l 126 252 l 379 252 l 379 0 l 126 0 m 126 379 l 126 1010 l 379 1010 l 379 379 l 126 379 z "},"\"":{"ha":821,"x_min":126,"x_max":758,"o":"m 126 631 l 126 1010 l 379 1010 l 379 631 l 126 631 m 505 631 l 505 1010 l 758 1010 l 758 631 l 505 631 z "},"#":{"ha":1452,"x_min":126,"x_max":1389,"o":"m 884 379 l 884 631 l 631 631 l 631 379 l 884 379 m 379 0 l 379 252 l 126 252 l 126 379 l 379 379 l 379 631 l 126 631 l 126 758 l 379 758 l 379 1010 l 631 1010 l 631 758 l 884 758 l 884 1010 l 1136 1010 l 1136 758 l 1389 758 l 1389 631 l 1136 631 l 1136 379 l 1389 379 l 1389 252 l 1136 252 l 1136 0 l 884 0 l 884 252 l 631 252 l 631 0 l 379 0 z "},"$":{"ha":1073,"x_min":126,"x_max":1010,"o":"m 758 126 l 758 505 l 631 505 l 631 126 l 758 126 m 505 631 l 505 884 l 379 884 l 379 631 l 505 631 m 442 -252 l 442 0 l 252 0 l 252 126 l 126 126 l 126 252 l 379 252 l 379 126 l 505 126 l 505 505 l 252 505 l 252 631 l 126 631 l 126 884 l 252 884 l 252 1010 l 442 1010 l 442 1262 l 694 1262 l 694 1010 l 884 1010 l 884 884 l 1010 884 l 1010 758 l 758 758 l 758 884 l 631 884 l 631 631 l 884 631 l 884 505 l 1010 505 l 1010 126 l 884 126 l 884 0 l 694 0 l 694 -252 l 442 -252 z "},"%":{"ha":1073,"x_min":126,"x_max":1010,"o":"m 631 0 l 631 252 l 758 252 l 758 126 l 884 126 l 884 0 l 631 0 m 884 126 l 884 252 l 758 252 l 758 379 l 1010 379 l 1010 126 l 884 126 m 126 631 l 126 884 l 252 884 l 252 758 l 379 758 l 379 631 l 126 631 m 379 758 l 379 884 l 252 884 l 252 1010 l 505 1010 l 505 758 l 379 758 m 126 0 l 126 252 l 252 252 l 252 379 l 379 379 l 379 505 l 505 505 l 505 631 l 631 631 l 631 758 l 758 758 l 758 1010 l 1010 1010 l 1010 758 l 884 758 l 884 631 l 758 631 l 758 505 l 631 505 l 631 379 l 505 379 l 505 252 l 379 252 l 379 0 l 126 0 z "},"&":{"ha":1199,"x_min":126,"x_max":1136,"o":"m 252 0 l 252 126 l 126 126 l 126 505 l 252 505 l 252 631 l 126 631 l 126 884 l 252 884 l 252 1010 l 884 1010 l 884 884 l 1010 884 l 1010 758 l 758 758 l 758 884 l 379 884 l 379 631 l 631 631 l 631 505 l 379 505 l 379 126 l 694 126 l 694 505 l 1136 505 l 1136 379 l 947 379 l 947 126 l 821 126 l 821 0 l 252 0 z "},"'":{"ha":442,"x_min":126,"x_max":379,"o":"m 126 631 l 126 1010 l 379 1010 l 379 631 l 126 631 z "},"(":{"ha":694,"x_min":126,"x_max":631,"o":"m 379 0 l 379 126 l 252 126 l 252 252 l 126 252 l 126 758 l 252 758 l 252 884 l 379 884 l 379 1010 l 631 1010 l 631 884 l 505 884 l 505 758 l 379 758 l 379 252 l 505 252 l 505 126 l 631 126 l 631 0 l 379 0 z "},")":{"ha":694,"x_min":126,"x_max":631,"o":"m 126 0 l 126 126 l 252 126 l 252 252 l 379 252 l 379 758 l 252 758 l 252 884 l 126 884 l 126 1010 l 379 1010 l 379 884 l 505 884 l 505 758 l 631 758 l 631 252 l 505 252 l 505 126 l 379 126 l 379 0 l 126 0 z "},"*":{"ha":1199,"x_min":126,"x_max":1136,"o":"m 252 252 l 252 379 l 442 379 l 442 505 l 126 505 l 126 631 l 442 631 l 442 758 l 252 758 l 252 884 l 568 884 l 568 758 l 694 758 l 694 884 l 1010 884 l 1010 758 l 821 758 l 821 631 l 1136 631 l 1136 505 l 821 505 l 821 379 l 1010 379 l 1010 252 l 694 252 l 694 379 l 568 379 l 568 252 l 252 252 z "},"+":{"ha":947,"x_min":126,"x_max":884,"o":"m 379 189 l 379 442 l 126 442 l 126 568 l 379 568 l 379 821 l 631 821 l 631 568 l 884 568 l 884 442 l 631 442 l 631 189 l 379 189 z "},",":{"ha":442,"x_min":0,"x_max":379,"o":"m 0 -126 l 0 0 l 126 0 l 126 252 l 379 252 l 379 0 l 252 0 l 252 -126 l 0 -126 z "},"-":{"ha":694,"x_min":126,"x_max":631,"o":"m 126 442 l 126 568 l 631 568 l 631 442 l 126 442 z "},".":{"ha":442,"x_min":126,"x_max":379,"o":"m 126 0 l 126 252 l 379 252 l 379 0 l 126 0 z "},"/":{"ha":1073,"x_min":126,"x_max":1010,"o":"m 126 0 l 126 252 l 252 252 l 252 379 l 379 379 l 379 505 l 505 505 l 505 631 l 631 631 l 631 758 l 758 758 l 758 1010 l 1010 1010 l 1010 758 l 884 758 l 884 631 l 758 631 l 758 505 l 631 505 l 631 379 l 505 379 l 505 252 l 379 252 l 379 0 l 126 0 z "},":":{"ha":442,"x_min":126,"x_max":379,"o":"m 126 0 l 126 252 l 379 252 l 379 0 l 126 0 m 126 505 l 126 758 l 379 758 l 379 505 l 126 505 z "},";":{"ha":442,"x_min":0,"x_max":379,"o":"m 0 -126 l 0 0 l 126 0 l 126 252 l 379 252 l 379 0 l 252 0 l 252 -126 l 0 -126 m 126 505 l 126 758 l 379 758 l 379 505 l 126 505 z "},"<":{"ha":821,"x_min":126,"x_max":758,"o":"m 505 0 l 505 126 l 379 126 l 379 252 l 252 252 l 252 379 l 126 379 l 126 505 l 252 505 l 252 631 l 379 631 l 379 758 l 505 758 l 505 884 l 758 884 l 758 758 l 631 758 l 631 631 l 505 631 l 505 505 l 379 505 l 379 379 l 505 379 l 505 252 l 631 252 l 631 126 l 758 126 l 758 0 l 505 0 z "},"=":{"ha":821,"x_min":126,"x_max":758,"o":"m 126 252 l 126 379 l 758 379 l 758 252 l 126 252 m 126 505 l 126 631 l 758 631 l 758 505 l 126 505 z "},">":{"ha":821,"x_min":126,"x_max":758,"o":"m 126 0 l 126 126 l 252 126 l 252 252 l 379 252 l 379 379 l 505 379 l 505 505 l 379 505 l 379 631 l 252 631 l 252 758 l 126 758 l 126 884 l 379 884 l 379 758 l 505 758 l 505 631 l 631 631 l 631 505 l 758 505 l 758 379 l 631 379 l 631 252 l 505 252 l 505 126 l 379 126 l 379 0 l 126 0 z "},"?":{"ha":1073,"x_min":126,"x_max":1010,"o":"m 379 0 l 379 252 l 631 252 l 631 0 l 379 0 m 379 379 l 379 505 l 505 505 l 505 631 l 758 631 l 758 884 l 379 884 l 379 758 l 126 758 l 126 884 l 252 884 l 252 1010 l 884 1010 l 884 884 l 1010 884 l 1010 631 l 884 631 l 884 505 l 631 505 l 631 379 l 379 379 z "},"@":{"ha":1073,"x_min":126,"x_max":1010,"o":"m 252 0 l 252 126 l 884 126 l 884 0 l 252 0 m 631 379 l 631 631 l 505 631 l 505 379 l 631 379 m 126 126 l 126 884 l 252 884 l 252 126 l 126 126 m 379 252 l 379 758 l 758 758 l 758 379 l 884 379 l 884 884 l 1010 884 l 1010 252 l 379 252 m 252 884 l 252 1010 l 884 1010 l 884 884 l 252 884 z "},"A":{"ha":1073,"x_min":126,"x_max":1010,"o":"m 758 505 l 758 758 l 631 758 l 631 884 l 505 884 l 505 758 l 379 758 l 379 505 l 758 505 m 126 0 l 126 758 l 252 758 l 252 884 l 379 884 l 379 1010 l 758 1010 l 758 884 l 884 884 l 884 758 l 1010 758 l 1010 0 l 758 0 l 758 379 l 379 379 l 379 0 l 126 0 z "},"B":{"ha":1073,"x_min":126,"x_max":1010,"o":"m 758 126 l 758 505 l 379 505 l 379 126 l 758 126 m 758 631 l 758 884 l 379 884 l 379 631 l 758 631 m 126 0 l 126 1010 l 884 1010 l 884 884 l 1010 884 l 1010 631 l 884 631 l 884 505 l 1010 505 l 1010 126 l 884 126 l 884 0 l 126 0 z "},"C":{"ha":1073,"x_min":126,"x_max":1010,"o":"m 379 0 l 379 126 l 252 126 l 252 252 l 126 252 l 126 758 l 252 758 l 252 884 l 379 884 l 379 1010 l 884 1010 l 884 884 l 1010 884 l 1010 758 l 758 758 l 758 884 l 505 884 l 505 758 l 379 758 l 379 252 l 505 252 l 505 126 l 758 126 l 758 252 l 1010 252 l 1010 126 l 884 126 l 884 0 l 379 0 z "},"D":{"ha":1073,"x_min":126,"x_max":1010,"o":"m 631 126 l 631 252 l 758 252 l 758 758 l 631 758 l 631 884 l 379 884 l 379 126 l 631 126 m 126 0 l 126 1010 l 758 1010 l 758 884 l 884 884 l 884 758 l 1010 758 l 1010 252 l 884 252 l 884 126 l 758 126 l 758 0 l 126 0 z "},"E":{"ha":1073,"x_min":126,"x_max":1010,"o":"m 126 0 l 126 1010 l 1010 1010 l 1010 884 l 379 884 l 379 631 l 758 631 l 758 505 l 379 505 l 379 126 l 1010 126 l 1010 0 l 126 0 z "},"F":{"ha":1073,"x_min":126,"x_max":1010,"o":"m 126 0 l 126 1010 l 1010 1010 l 1010 884 l 379 884 l 379 631 l 758 631 l 758 505 l 379 505 l 379 0 l 126 0 z "},"G":{"ha":1073,"x_min":126,"x_max":1010,"o":"m 379 0 l 379 126 l 252 126 l 252 252 l 126 252 l 126 758 l 252 758 l 252 884 l 379 884 l 379 1010 l 884 1010 l 884 884 l 1010 884 l 1010 758 l 758 758 l 758 884 l 505 884 l 505 758 l 379 758 l 379 252 l 505 252 l 505 126 l 758 126 l 758 442 l 505 442 l 505 568 l 1010 568 l 1010 0 l 379 0 z "},"H":{"ha":1073,"x_min":126,"x_max":1010,"o":"m 126 0 l 126 1010 l 379 1010 l 379 631 l 758 631 l 758 1010 l 1010 1010 l 1010 0 l 758 0 l 758 505 l 379 505 l 379 0 l 126 0 z "},"I":{"ha":947,"x_min":126,"x_max":884,"o":"m 126 0 l 126 126 l 379 126 l 379 884 l 126 884 l 126 1010 l 884 1010 l 884 884 l 631 884 l 631 126 l 884 126 l 884 0 l 126 0 z "},"J":{"ha":1073,"x_min":126,"x_max":1010,"o":"m 252 0 l 252 126 l 126 126 l 126 379 l 379 379 l 379 126 l 758 126 l 758 884 l 379 884 l 379 1010 l 1010 1010 l 1010 126 l 884 126 l 884 0 l 252 0 z "},"K":{"ha":1073,"x_min":126,"x_max":1010,"o":"m 126 0 l 126 1010 l 379 1010 l 379 631 l 505 631 l 505 758 l 631 758 l 631 884 l 758 884 l 758 1010 l 1010 1010 l 1010 884 l 884 884 l 884 758 l 758 758 l 758 631 l 631 631 l 631 505 l 758 505 l 758 379 l 884 379 l 884 252 l 1010 252 l 1010 0 l 758 0 l 758 252 l 631 252 l 631 379 l 505 379 l 505 505 l 379 505 l 379 0 l 126 0 z "},"L":{"ha":947,"x_min":126,"x_max":884,"o":"m 126 0 l 126 1010 l 379 1010 l 379 126 l 884 126 l 884 0 l 126 0 z "},"M":{"ha":1073,"x_min":126,"x_max":1010,"o":"m 126 0 l 126 1010 l 252 1010 l 252 884 l 379 884 l 379 758 l 505 758 l 505 631 l 631 631 l 631 758 l 758 758 l 758 884 l 884 884 l 884 1010 l 1010 1010 l 1010 0 l 758 0 l 758 505 l 631 505 l 631 379 l 505 379 l 505 505 l 379 505 l 379 0 l 126 0 z "},"N":{"ha":1073,"x_min":126,"x_max":1010,"o":"m 126 0 l 126 1010 l 252 1010 l 252 884 l 379 884 l 379 758 l 505 758 l 505 631 l 631 631 l 631 505 l 758 505 l 758 1010 l 1010 1010 l 1010 0 l 884 0 l 884 126 l 758 126 l 758 252 l 631 252 l 631 379 l 505 379 l 505 505 l 379 505 l 379 0 l 126 0 z "},"O":{"ha":1073,"x_min":126,"x_max":1010,"o":"m 758 126 l 758 884 l 379 884 l 379 126 l 758 126 m 252 0 l 252 126 l 126 126 l 126 884 l 252 884 l 252 1010 l 884 1010 l 884 884 l 1010 884 l 1010 126 l 884 126 l 884 0 l 252 0 z "},"P":{"ha":1073,"x_min":126,"x_max":1010,"o":"m 758 631 l 758 884 l 379 884 l 379 631 l 758 631 m 126 0 l 126 1010 l 884 1010 l 884 884 l 1010 884 l 1010 631 l 884 631 l 884 505 l 379 505 l 379 0 l 126 0 z "},"Q":{"ha":1073,"x_min":126,"x_max":1010,"o":"m 884 0 l 884 126 l 1010 126 l 1010 0 l 884 0 m 631 126 l 631 252 l 505 252 l 505 379 l 758 379 l 758 884 l 379 884 l 379 126 l 631 126 m 252 0 l 252 126 l 126 126 l 126 884 l 252 884 l 252 1010 l 884 1010 l 884 884 l 1010 884 l 1010 252 l 884 252 l 884 126 l 758 126 l 758 0 l 252 0 z "},"R":{"ha":1073,"x_min":126,"x_max":1010,"o":"m 758 631 l 758 884 l 379 884 l 379 631 l 758 631 m 126 0 l 126 1010 l 884 1010 l 884 884 l 1010 884 l 1010 631 l 884 631 l 884 505 l 1010 505 l 1010 0 l 758 0 l 758 505 l 379 505 l 379 0 l 126 0 z "},"S":{"ha":1073,"x_min":126,"x_max":1010,"o":"m 252 0 l 252 126 l 126 126 l 126 252 l 379 252 l 379 126 l 758 126 l 758 505 l 252 505 l 252 631 l 126 631 l 126 884 l 252 884 l 252 1010 l 884 1010 l 884 884 l 1010 884 l 1010 758 l 758 758 l 758 884 l 379 884 l 379 631 l 884 631 l 884 505 l 1010 505 l 1010 126 l 884 126 l 884 0 l 252 0 z "},"T":{"ha":1073,"x_min":126,"x_max":1010,"o":"m 442 0 l 442 884 l 126 884 l 126 1010 l 1010 1010 l 1010 884 l 694 884 l 694 0 l 442 0 z "},"U":{"ha":1073,"x_min":126,"x_max":1010,"o":"m 252 0 l 252 126 l 126 126 l 126 1010 l 379 1010 l 379 126 l 758 126 l 758 1010 l 1010 1010 l 1010 126 l 884 126 l 884 0 l 252 0 z "},"V":{"ha":1073,"x_min":126,"x_max":1010,"o":"m 505 0 l 505 126 l 379 126 l 379 252 l 252 252 l 252 379 l 126 379 l 126 1010 l 379 1010 l 379 379 l 505 379 l 505 252 l 631 252 l 631 379 l 758 379 l 758 1010 l 1010 1010 l 1010 379 l 884 379 l 884 252 l 758 252 l 758 126 l 631 126 l 631 0 l 505 0 z "},"W":{"ha":1199,"x_min":126,"x_max":1136,"o":"m 252 0 l 252 126 l 126 126 l 126 1010 l 379 1010 l 379 379 l 568 379 l 568 1010 l 694 1010 l 694 379 l 884 379 l 884 1010 l 1136 1010 l 1136 126 l 1010 126 l 1010 0 l 884 0 l 884 126 l 758 126 l 758 252 l 505 252 l 505 126 l 379 126 l 379 0 l 252 0 z "},"X":{"ha":1073,"x_min":126,"x_max":1010,"o":"m 126 0 l 126 379 l 252 379 l 252 505 l 379 505 l 379 631 l 252 631 l 252 758 l 126 758 l 126 1010 l 379 1010 l 379 758 l 505 758 l 505 631 l 631 631 l 631 758 l 758 758 l 758 1010 l 1010 1010 l 1010 758 l 884 758 l 884 631 l 758 631 l 758 505 l 884 505 l 884 379 l 1010 379 l 1010 0 l 758 0 l 758 379 l 631 379 l 631 505 l 505 505 l 505 379 l 379 379 l 379 0 l 126 0 z "},"Y":{"ha":1073,"x_min":126,"x_max":1010,"o":"m 442 0 l 442 379 l 379 379 l 379 505 l 252 505 l 252 631 l 126 631 l 126 1010 l 379 1010 l 379 631 l 505 631 l 505 505 l 631 505 l 631 631 l 758 631 l 758 1010 l 1010 1010 l 1010 631 l 884 631 l 884 505 l 758 505 l 758 379 l 694 379 l 694 0 l 442 0 z "},"Z":{"ha":1073,"x_min":126,"x_max":1010,"o":"m 126 0 l 126 252 l 252 252 l 252 379 l 379 379 l 379 505 l 505 505 l 505 631 l 631 631 l 631 758 l 758 758 l 758 884 l 126 884 l 126 1010 l 1010 1010 l 1010 758 l 884 758 l 884 631 l 758 631 l 758 505 l 631 505 l 631 379 l 505 379 l 505 252 l 379 252 l 379 126 l 1010 126 l 1010 0 l 126 0 z "},"[":{"ha":694,"x_min":126,"x_max":631,"o":"m 126 0 l 126 1010 l 631 1010 l 631 884 l 379 884 l 379 126 l 631 126 l 631 0 l 126 0 z "},"\\":{"ha":1073,"x_min":126,"x_max":1010,"o":"m 758 0 l 758 252 l 631 252 l 631 379 l 505 379 l 505 505 l 379 505 l 379 631 l 252 631 l 252 758 l 126 758 l 126 1010 l 379 1010 l 379 758 l 505 758 l 505 631 l 631 631 l 631 505 l 758 505 l 758 379 l 884 379 l 884 252 l 1010 252 l 1010 0 l 758 0 z "},"]":{"ha":694,"x_min":126,"x_max":631,"o":"m 126 0 l 126 126 l 379 126 l 379 884 l 126 884 l 126 1010 l 631 1010 l 631 0 l 126 0 z "},"^":{"ha":1073,"x_min":126,"x_max":1010,"o":"m 126 631 l 126 758 l 252 758 l 252 884 l 379 884 l 379 1010 l 758 1010 l 758 884 l 884 884 l 884 758 l 1010 758 l 1010 631 l 758 631 l 758 758 l 631 758 l 631 884 l 505 884 l 505 758 l 379 758 l 379 631 l 126 631 z "},"_":{"ha":821,"x_min":126,"x_max":758,"o":"m 126 0 l 126 126 l 758 126 l 758 0 l 126 0 z "},"`":{"ha":694,"x_min":126,"x_max":631,"o":"m 379 631 l 379 758 l 252 758 l 252 884 l 126 884 l 126 1010 l 379 1010 l 379 884 l 505 884 l 505 758 l 631 758 l 631 631 l 379 631 z "},"a":{"ha":1073,"x_min":126,"x_max":1010,"o":"m 758 126 l 758 252 l 379 252 l 379 126 l 758 126 m 252 0 l 252 126 l 126 126 l 126 252 l 252 252 l 252 379 l 758 379 l 758 505 l 252 505 l 252 631 l 884 631 l 884 505 l 1010 505 l 1010 0 l 252 0 z "},"b":{"ha":1073,"x_min":126,"x_max":1010,"o":"m 758 126 l 758 505 l 379 505 l 379 126 l 758 126 m 126 0 l 126 1010 l 379 1010 l 379 631 l 884 631 l 884 505 l 1010 505 l 1010 126 l 884 126 l 884 0 l 126 0 z "},"c":{"ha":1073,"x_min":126,"x_max":1010,"o":"m 252 0 l 252 126 l 126 126 l 126 505 l 252 505 l 252 631 l 884 631 l 884 505 l 1010 505 l 1010 379 l 758 379 l 758 505 l 379 505 l 379 126 l 758 126 l 758 252 l 1010 252 l 1010 126 l 884 126 l 884 0 l 252 0 z "},"d":{"ha":1073,"x_min":126,"x_max":1010,"o":"m 758 126 l 758 505 l 379 505 l 379 126 l 758 126 m 252 0 l 252 126 l 126 126 l 126 505 l 252 505 l 252 631 l 758 631 l 758 1010 l 1010 1010 l 1010 0 l 252 0 z "},"e":{"ha":1073,"x_min":126,"x_max":1010,"o":"m 758 379 l 758 505 l 379 505 l 379 379 l 758 379 m 252 0 l 252 126 l 126 126 l 126 505 l 252 505 l 252 631 l 884 631 l 884 505 l 1010 505 l 1010 252 l 379 252 l 379 126 l 884 126 l 884 0 l 252 0 z "},"f":{"ha":821,"x_min":126,"x_max":758,"o":"m 252 0 l 252 505 l 126 505 l 126 631 l 252 631 l 252 884 l 379 884 l 379 1010 l 758 1010 l 758 884 l 505 884 l 505 631 l 758 631 l 758 505 l 505 505 l 505 0 l 252 0 z "},"g":{"ha":1073,"x_min":126,"x_max":1010,"o":"m 758 126 l 758 505 l 379 505 l 379 126 l 758 126 m 252 -379 l 252 -252 l 758 -252 l 758 0 l 252 0 l 252 126 l 126 126 l 126 505 l 252 505 l 252 631 l 1010 631 l 1010 -252 l 884 -252 l 884 -379 l 252 -379 z "},"h":{"ha":1073,"x_min":126,"x_max":1010,"o":"m 126 0 l 126 1010 l 379 1010 l 379 631 l 884 631 l 884 505 l 1010 505 l 1010 0 l 758 0 l 758 505 l 379 505 l 379 0 l 126 0 z "},"i":{"ha":442,"x_min":126,"x_max":379,"o":"m 126 0 l 126 631 l 379 631 l 379 0 l 126 0 m 126 758 l 126 1010 l 379 1010 l 379 758 l 126 758 z "},"j":{"ha":821,"x_min":126,"x_max":758,"o":"m 252 -126 l 252 0 l 126 0 l 126 126 l 379 126 l 379 0 l 505 0 l 505 631 l 758 631 l 758 0 l 631 0 l 631 -126 l 252 -126 m 505 758 l 505 1010 l 758 1010 l 758 758 l 505 758 z "},"k":{"ha":947,"x_min":126,"x_max":884,"o":"m 126 0 l 126 1010 l 379 1010 l 379 379 l 505 379 l 505 505 l 631 505 l 631 631 l 884 631 l 884 505 l 758 505 l 758 379 l 631 379 l 631 252 l 758 252 l 758 126 l 884 126 l 884 0 l 631 0 l 631 126 l 505 126 l 505 252 l 379 252 l 379 0 l 126 0 z "},"l":{"ha":568,"x_min":126,"x_max":505,"o":"m 252 0 l 252 126 l 126 126 l 126 1010 l 379 1010 l 379 126 l 505 126 l 505 0 l 252 0 z "},"m":{"ha":1073,"x_min":126,"x_max":1010,"o":"m 126 0 l 126 631 l 884 631 l 884 505 l 1010 505 l 1010 0 l 758 0 l 758 505 l 631 505 l 631 0 l 505 0 l 505 505 l 379 505 l 379 0 l 126 0 z "},"n":{"ha":1073,"x_min":126,"x_max":1010,"o":"m 126 0 l 126 631 l 884 631 l 884 505 l 1010 505 l 1010 0 l 758 0 l 758 505 l 379 505 l 379 0 l 126 0 z "},"o":{"ha":1073,"x_min":126,"x_max":1010,"o":"m 758 126 l 758 505 l 379 505 l 379 126 l 758 126 m 252 0 l 252 126 l 126 126 l 126 505 l 252 505 l 252 631 l 884 631 l 884 505 l 1010 505 l 1010 126 l 884 126 l 884 0 l 252 0 z "},"p":{"ha":1073,"x_min":126,"x_max":1010,"o":"m 758 126 l 758 505 l 379 505 l 379 126 l 758 126 m 126 -379 l 126 631 l 884 631 l 884 505 l 1010 505 l 1010 126 l 884 126 l 884 0 l 379 0 l 379 -379 l 126 -379 z "},"q":{"ha":1073,"x_min":126,"x_max":1010,"o":"m 758 126 l 758 505 l 379 505 l 379 126 l 758 126 m 758 -379 l 758 0 l 252 0 l 252 126 l 126 126 l 126 505 l 252 505 l 252 631 l 1010 631 l 1010 -379 l 758 -379 z "},"r":{"ha":947,"x_min":126,"x_max":884,"o":"m 126 0 l 126 631 l 379 631 l 379 505 l 505 505 l 505 379 l 379 379 l 379 0 l 126 0 m 505 505 l 505 631 l 884 631 l 884 505 l 505 505 z "},"s":{"ha":1073,"x_min":126,"x_max":1010,"o":"m 126 0 l 126 126 l 758 126 l 758 252 l 252 252 l 252 379 l 126 379 l 126 505 l 252 505 l 252 631 l 884 631 l 884 505 l 379 505 l 379 379 l 884 379 l 884 252 l 1010 252 l 1010 126 l 884 126 l 884 0 l 126 0 z "},"t":{"ha":821,"x_min":126,"x_max":758,"o":"m 379 0 l 379 126 l 252 126 l 252 505 l 126 505 l 126 631 l 252 631 l 252 1010 l 505 1010 l 505 631 l 758 631 l 758 505 l 505 505 l 505 126 l 758 126 l 758 0 l 379 0 z "},"u":{"ha":1073,"x_min":126,"x_max":1010,"o":"m 252 0 l 252 126 l 126 126 l 126 631 l 379 631 l 379 126 l 758 126 l 758 631 l 1010 631 l 1010 126 l 884 126 l 884 0 l 252 0 z "},"v":{"ha":1073,"x_min":126,"x_max":1010,"o":"m 379 0 l 379 126 l 252 126 l 252 252 l 126 252 l 126 631 l 379 631 l 379 252 l 505 252 l 505 126 l 631 126 l 631 252 l 758 252 l 758 631 l 1010 631 l 1010 252 l 884 252 l 884 126 l 758 126 l 758 0 l 379 0 z "},"w":{"ha":1073,"x_min":126,"x_max":1010,"o":"m 252 0 l 252 126 l 126 126 l 126 631 l 379 631 l 379 126 l 505 126 l 505 0 l 252 0 m 505 126 l 505 631 l 631 631 l 631 126 l 505 126 m 631 0 l 631 126 l 758 126 l 758 631 l 1010 631 l 1010 126 l 884 126 l 884 0 l 631 0 z "},"x":{"ha":1073,"x_min":126,"x_max":1010,"o":"m 126 0 l 126 126 l 252 126 l 252 252 l 379 252 l 379 379 l 252 379 l 252 505 l 126 505 l 126 631 l 379 631 l 379 505 l 505 505 l 505 442 l 631 442 l 631 505 l 758 505 l 758 631 l 1010 631 l 1010 505 l 884 505 l 884 379 l 758 379 l 758 252 l 884 252 l 884 126 l 1010 126 l 1010 0 l 758 0 l 758 126 l 631 126 l 631 189 l 505 189 l 505 126 l 379 126 l 379 0 l 126 0 z "},"y":{"ha":1073,"x_min":126,"x_max":1010,"o":"m 252 -379 l 252 -252 l 758 -252 l 758 0 l 252 0 l 252 126 l 126 126 l 126 631 l 379 631 l 379 126 l 758 126 l 758 631 l 1010 631 l 1010 -252 l 884 -252 l 884 -379 l 252 -379 z "},"z":{"ha":1073,"x_min":126,"x_max":1010,"o":"m 126 0 l 126 126 l 252 126 l 252 252 l 379 252 l 379 379 l 505 379 l 505 505 l 126 505 l 126 631 l 1010 631 l 1010 505 l 884 505 l 884 379 l 758 379 l 758 252 l 631 252 l 631 126 l 1010 126 l 1010 0 l 126 0 z "},"{":{"ha":694,"x_min":126,"x_max":631,"o":"m 379 0 l 379 126 l 252 126 l 252 442 l 126 442 l 126 568 l 252 568 l 252 884 l 379 884 l 379 1010 l 631 1010 l 631 884 l 505 884 l 505 568 l 379 568 l 379 442 l 505 442 l 505 126 l 631 126 l 631 0 l 379 0 z "},"|":{"ha":442,"x_min":126,"x_max":379,"o":"m 126 -252 l 126 1010 l 379 1010 l 379 -252 l 126 -252 z "},"}":{"ha":694,"x_min":126,"x_max":631,"o":"m 126 0 l 126 126 l 252 126 l 252 442 l 379 442 l 379 568 l 252 568 l 252 884 l 126 884 l 126 1010 l 379 1010 l 379 884 l 505 884 l 505 568 l 631 568 l 631 442 l 505 442 l 505 126 l 379 126 l 379 0 l 126 0 z "},"~":{"ha":947,"x_min":126,"x_max":884,"o":"m 126 505 l 126 631 l 252 631 l 252 505 l 126 505 m 758 505 l 758 631 l 884 631 l 884 505 l 758 505 m 505 379 l 505 505 l 379 505 l 379 631 l 252 631 l 252 758 l 505 758 l 505 631 l 631 631 l 631 505 l 758 505 l 758 379 l 505 379 z "},"¡":{"ha":442,"x_min":126,"x_max":379,"o":"m 126 0 l 126 631 l 379 631 l 379 0 l 126 0 m 126 758 l 126 1010 l 379 1010 l 379 758 l 126 758 z "},"¢":{"ha":1073,"x_min":126,"x_max":1010,"o":"m 505 126 l 505 505 l 379 505 l 379 126 l 505 126 m 505 -126 l 505 0 l 252 0 l 252 126 l 126 126 l 126 505 l 252 505 l 252 631 l 505 631 l 505 758 l 631 758 l 631 631 l 884 631 l 884 505 l 1010 505 l 1010 379 l 758 379 l 758 505 l 631 505 l 631 126 l 758 126 l 758 252 l 1010 252 l 1010 126 l 884 126 l 884 0 l 631 0 l 631 -126 l 505 -126 z "},"£":{"ha":1073,"x_min":126,"x_max":1010,"o":"m 126 0 l 126 126 l 252 126 l 252 505 l 126 505 l 126 631 l 252 631 l 252 884 l 379 884 l 379 1010 l 884 1010 l 884 884 l 1010 884 l 1010 758 l 758 758 l 758 884 l 505 884 l 505 631 l 884 631 l 884 505 l 505 505 l 505 126 l 1010 126 l 1010 0 l 126 0 z "},"¤":{"ha":1010,"x_min":126,"x_max":947,"o":"m 126 189 l 126 315 l 252 315 l 252 189 l 126 189 m 379 189 l 379 315 l 694 315 l 694 189 l 379 189 m 821 189 l 821 315 l 947 315 l 947 189 l 821 189 m 252 315 l 252 694 l 379 694 l 379 315 l 252 315 m 694 315 l 694 694 l 821 694 l 821 315 l 694 315 m 126 694 l 126 821 l 252 821 l 252 694 l 126 694 m 379 694 l 379 821 l 694 821 l 694 694 l 379 694 m 821 694 l 821 821 l 947 821 l 947 694 l 821 694 z "},"¥":{"ha":1073,"x_min":126,"x_max":1010,"o":"m 442 0 l 442 126 l 126 126 l 126 252 l 442 252 l 442 315 l 126 315 l 126 442 l 379 442 l 379 505 l 252 505 l 252 631 l 126 631 l 126 1010 l 379 1010 l 379 631 l 505 631 l 505 505 l 631 505 l 631 631 l 758 631 l 758 1010 l 1010 1010 l 1010 631 l 884 631 l 884 505 l 758 505 l 758 442 l 1010 442 l 1010 315 l 694 315 l 694 252 l 1010 252 l 1010 126 l 694 126 l 694 0 l 442 0 z "},"¦":{"ha":379,"x_min":126,"x_max":315,"o":"m 126 -379 l 126 315 l 315 315 l 315 -379 l 126 -379 m 126 568 l 126 1262 l 315 1262 l 315 568 l 126 568 z "},"§":{"ha":1073,"x_min":126,"x_max":1010,"o":"m 252 0 l 252 126 l 126 126 l 126 252 l 379 252 l 379 126 l 758 126 l 758 315 l 379 315 l 379 442 l 758 442 l 758 568 l 884 568 l 884 379 l 1010 379 l 1010 126 l 884 126 l 884 0 l 252 0 m 252 442 l 252 568 l 126 568 l 126 884 l 252 884 l 252 1010 l 884 1010 l 884 884 l 1010 884 l 1010 758 l 758 758 l 758 884 l 379 884 l 379 694 l 758 694 l 758 568 l 379 568 l 379 442 l 252 442 z "},"¨":{"ha":821,"x_min":126,"x_max":758,"o":"m 126 758 l 126 1010 l 379 1010 l 379 758 l 126 758 m 505 758 l 505 1010 l 758 1010 l 758 758 l 505 758 z "},"©":{"ha":1325,"x_min":126,"x_max":1262,"o":"m 568 252 l 568 379 l 442 379 l 442 631 l 568 631 l 568 758 l 947 758 l 947 631 l 694 631 l 694 379 l 947 379 l 947 252 l 568 252 m 1010 126 l 1010 884 l 379 884 l 379 126 l 1010 126 m 252 0 l 252 126 l 126 126 l 126 884 l 252 884 l 252 1010 l 1136 1010 l 1136 884 l 1262 884 l 1262 126 l 1136 126 l 1136 0 l 252 0 z "},"ª":{"ha":694,"x_min":126,"x_max":631,"o":"m 126 442 l 126 631 l 252 631 l 252 442 l 126 442 m 252 315 l 252 442 l 505 442 l 505 631 l 252 631 l 252 758 l 505 758 l 505 884 l 631 884 l 631 315 l 252 315 m 252 884 l 252 1010 l 505 1010 l 505 884 l 252 884 z "},"«":{"ha":1325,"x_min":126,"x_max":1262,"o":"m 505 0 l 505 126 l 379 126 l 379 252 l 252 252 l 252 379 l 126 379 l 126 505 l 252 505 l 252 631 l 379 631 l 379 758 l 505 758 l 505 884 l 758 884 l 758 758 l 631 758 l 631 631 l 505 631 l 505 505 l 379 505 l 379 379 l 505 379 l 505 252 l 631 252 l 631 126 l 758 126 l 758 0 l 505 0 m 1010 0 l 1010 126 l 884 126 l 884 252 l 758 252 l 758 379 l 631 379 l 631 505 l 758 505 l 758 631 l 884 631 l 884 758 l 1010 758 l 1010 884 l 1262 884 l 1262 758 l 1136 758 l 1136 631 l 1010 631 l 1010 505 l 884 505 l 884 379 l 1010 379 l 1010 252 l 1136 252 l 1136 126 l 1262 126 l 1262 0 l 1010 0 z "},"®":{"ha":947,"x_min":126,"x_max":884,"o":"m 252 252 l 252 379 l 758 379 l 758 252 l 252 252 m 568 631 l 568 694 l 442 694 l 442 631 l 568 631 m 315 442 l 315 821 l 694 821 l 694 568 l 631 568 l 631 505 l 694 505 l 694 442 l 505 442 l 505 505 l 442 505 l 442 442 l 315 442 m 126 379 l 126 884 l 252 884 l 252 379 l 126 379 m 758 379 l 758 884 l 884 884 l 884 379 l 758 379 m 252 884 l 252 1010 l 758 1010 l 758 884 l 252 884 z "},"±":{"ha":947,"x_min":126,"x_max":884,"o":"m 126 63 l 126 189 l 884 189 l 884 63 l 126 63 m 379 315 l 379 568 l 126 568 l 126 694 l 379 694 l 379 947 l 631 947 l 631 694 l 884 694 l 884 568 l 631 568 l 631 315 l 379 315 z "},"µ":{"ha":1073,"x_min":63,"x_max":1010,"o":"m 63 -379 l 63 631 l 315 631 l 315 252 l 442 252 l 442 126 l 315 126 l 315 -379 l 63 -379 m 442 0 l 442 126 l 631 126 l 631 252 l 821 252 l 821 631 l 1010 631 l 1010 0 l 821 0 l 821 126 l 694 126 l 694 0 l 442 0 z "},"¶":{"ha":1073,"x_min":126,"x_max":1010,"o":"m 884 63 l 884 884 l 758 884 l 758 63 l 884 63 m 631 0 l 631 505 l 252 505 l 252 631 l 126 631 l 126 884 l 252 884 l 252 1010 l 1010 1010 l 1010 0 l 631 0 z "},"»":{"ha":1325,"x_min":126,"x_max":1262,"o":"m 126 0 l 126 126 l 252 126 l 252 252 l 379 252 l 379 379 l 505 379 l 505 505 l 379 505 l 379 631 l 252 631 l 252 758 l 126 758 l 126 884 l 379 884 l 379 758 l 505 758 l 505 631 l 631 631 l 631 505 l 758 505 l 758 379 l 631 379 l 631 252 l 505 252 l 505 126 l 379 126 l 379 0 l 126 0 m 631 0 l 631 126 l 758 126 l 758 252 l 884 252 l 884 379 l 1010 379 l 1010 505 l 884 505 l 884 631 l 758 631 l 758 758 l 631 758 l 631 884 l 884 884 l 884 758 l 1010 758 l 1010 631 l 1136 631 l 1136 505 l 1262 505 l 1262 379 l 1136 379 l 1136 252 l 1010 252 l 1010 126 l 884 126 l 884 0 l 631 0 z "},"¿":{"ha":1073,"x_min":126,"x_max":1010,"o":"m 252 0 l 252 126 l 126 126 l 126 379 l 252 379 l 252 505 l 505 505 l 505 631 l 758 631 l 758 505 l 631 505 l 631 379 l 379 379 l 379 126 l 758 126 l 758 252 l 1010 252 l 1010 126 l 884 126 l 884 0 l 252 0 m 505 758 l 505 1010 l 758 1010 l 758 758 l 505 758 z "},"À":{"ha":1073,"x_min":126,"x_max":1010,"o":"m 758 505 l 758 758 l 631 758 l 631 884 l 505 884 l 505 758 l 379 758 l 379 505 l 758 505 m 126 0 l 126 758 l 252 758 l 252 884 l 379 884 l 379 1010 l 758 1010 l 758 884 l 884 884 l 884 758 l 1010 758 l 1010 0 l 758 0 l 758 379 l 379 379 l 379 0 l 126 0 m 442 1136 l 442 1262 l 315 1262 l 315 1389 l 568 1389 l 568 1262 l 694 1262 l 694 1136 l 442 1136 z "},"Á":{"ha":1073,"x_min":126,"x_max":1010,"o":"m 758 505 l 758 758 l 631 758 l 631 884 l 505 884 l 505 758 l 379 758 l 379 505 l 758 505 m 126 0 l 126 758 l 252 758 l 252 884 l 379 884 l 379 1010 l 758 1010 l 758 884 l 884 884 l 884 758 l 1010 758 l 1010 0 l 758 0 l 758 379 l 379 379 l 379 0 l 126 0 m 442 1136 l 442 1262 l 568 1262 l 568 1389 l 821 1389 l 821 1262 l 694 1262 l 694 1136 l 442 1136 z "},"Â":{"ha":1073,"x_min":126,"x_max":1010,"o":"m 758 505 l 758 758 l 631 758 l 631 884 l 505 884 l 505 758 l 379 758 l 379 505 l 758 505 m 126 0 l 126 758 l 252 758 l 252 884 l 379 884 l 379 1010 l 758 1010 l 758 884 l 884 884 l 884 758 l 1010 758 l 1010 0 l 758 0 l 758 379 l 379 379 l 379 0 l 126 0 m 252 1136 l 252 1262 l 379 1262 l 379 1389 l 758 1389 l 758 1262 l 884 1262 l 884 1136 l 631 1136 l 631 1262 l 505 1262 l 505 1136 l 252 1136 z "},"Ã":{"ha":1073,"x_min":126,"x_max":1010,"o":"m 758 505 l 758 758 l 631 758 l 631 884 l 505 884 l 505 758 l 379 758 l 379 505 l 758 505 m 126 0 l 126 758 l 252 758 l 252 884 l 379 884 l 379 1010 l 758 1010 l 758 884 l 884 884 l 884 758 l 1010 758 l 1010 0 l 758 0 l 758 379 l 379 379 l 379 0 l 126 0 m 315 1136 l 315 1262 l 442 1262 l 442 1136 l 315 1136 m 568 1136 l 568 1262 l 694 1262 l 694 1136 l 568 1136 m 442 1262 l 442 1389 l 568 1389 l 568 1262 l 442 1262 m 694 1262 l 694 1389 l 821 1389 l 821 1262 l 694 1262 z "},"Ä":{"ha":1073,"x_min":126,"x_max":1010,"o":"m 758 505 l 758 758 l 631 758 l 631 884 l 505 884 l 505 758 l 379 758 l 379 505 l 758 505 m 126 0 l 126 758 l 252 758 l 252 884 l 379 884 l 379 1010 l 758 1010 l 758 884 l 884 884 l 884 758 l 1010 758 l 1010 0 l 758 0 l 758 379 l 379 379 l 379 0 l 126 0 m 252 1136 l 252 1389 l 505 1389 l 505 1136 l 252 1136 m 631 1136 l 631 1389 l 884 1389 l 884 1136 l 631 1136 z "},"Å":{"ha":1073,"x_min":126,"x_max":1010,"o":"m 758 505 l 758 758 l 631 758 l 631 884 l 505 884 l 505 758 l 379 758 l 379 505 l 758 505 m 126 0 l 126 758 l 252 758 l 252 884 l 379 884 l 379 1010 l 505 1010 l 505 1136 l 631 1136 l 631 1010 l 758 1010 l 758 884 l 884 884 l 884 758 l 1010 758 l 1010 0 l 758 0 l 758 379 l 379 379 l 379 0 l 126 0 m 379 1136 l 379 1262 l 505 1262 l 505 1136 l 379 1136 m 631 1136 l 631 1262 l 758 1262 l 758 1136 l 631 1136 m 505 1262 l 505 1389 l 631 1389 l 631 1262 l 505 1262 z "},"Æ":{"ha":1452,"x_min":126,"x_max":1389,"o":"m 631 505 l 631 884 l 505 884 l 505 758 l 379 758 l 379 505 l 631 505 m 126 0 l 126 758 l 252 758 l 252 884 l 379 884 l 379 1010 l 1389 1010 l 1389 884 l 884 884 l 884 631 l 1262 631 l 1262 505 l 884 505 l 884 126 l 1389 126 l 1389 0 l 631 0 l 631 379 l 379 379 l 379 0 l 126 0 z "},"Ç":{"ha":1073,"x_min":126,"x_max":1010,"o":"m 379 -252 l 379 -126 l 631 -126 l 631 0 l 379 0 l 379 126 l 252 126 l 252 252 l 126 252 l 126 758 l 252 758 l 252 884 l 379 884 l 379 1010 l 884 1010 l 884 884 l 1010 884 l 1010 758 l 758 758 l 758 884 l 505 884 l 505 758 l 379 758 l 379 252 l 505 252 l 505 126 l 758 126 l 758 252 l 1010 252 l 1010 126 l 884 126 l 884 -126 l 758 -126 l 758 -252 l 379 -252 z "},"È":{"ha":1073,"x_min":126,"x_max":1010,"o":"m 126 0 l 126 1010 l 1010 1010 l 1010 884 l 379 884 l 379 631 l 758 631 l 758 505 l 379 505 l 379 126 l 1010 126 l 1010 0 l 126 0 m 442 1136 l 442 1262 l 315 1262 l 315 1389 l 568 1389 l 568 1262 l 694 1262 l 694 1136 l 442 1136 z "},"É":{"ha":1073,"x_min":126,"x_max":1010,"o":"m 126 0 l 126 1010 l 1010 1010 l 1010 884 l 379 884 l 379 631 l 758 631 l 758 505 l 379 505 l 379 126 l 1010 126 l 1010 0 l 126 0 m 442 1136 l 442 1262 l 568 1262 l 568 1389 l 821 1389 l 821 1262 l 694 1262 l 694 1136 l 442 1136 z "},"Ê":{"ha":1073,"x_min":126,"x_max":1010,"o":"m 126 0 l 126 1010 l 1010 1010 l 1010 884 l 379 884 l 379 631 l 758 631 l 758 505 l 379 505 l 379 126 l 1010 126 l 1010 0 l 126 0 m 252 1136 l 252 1262 l 379 1262 l 379 1389 l 758 1389 l 758 1262 l 884 1262 l 884 1136 l 631 1136 l 631 1262 l 505 1262 l 505 1136 l 252 1136 z "},"Ë":{"ha":1073,"x_min":126,"x_max":1010,"o":"m 126 0 l 126 1010 l 1010 1010 l 1010 884 l 379 884 l 379 631 l 758 631 l 758 505 l 379 505 l 379 126 l 1010 126 l 1010 0 l 126 0 m 252 1136 l 252 1389 l 505 1389 l 505 1136 l 252 1136 m 631 1136 l 631 1389 l 884 1389 l 884 1136 l 631 1136 z "},"Ì":{"ha":947,"x_min":126,"x_max":884,"o":"m 126 0 l 126 126 l 379 126 l 379 884 l 126 884 l 126 1010 l 884 1010 l 884 884 l 631 884 l 631 126 l 884 126 l 884 0 l 126 0 m 379 1136 l 379 1262 l 252 1262 l 252 1389 l 505 1389 l 505 1262 l 631 1262 l 631 1136 l 379 1136 z "},"Í":{"ha":947,"x_min":126,"x_max":884,"o":"m 126 0 l 126 126 l 379 126 l 379 884 l 126 884 l 126 1010 l 884 1010 l 884 884 l 631 884 l 631 126 l 884 126 l 884 0 l 126 0 m 379 1136 l 379 1262 l 505 1262 l 505 1389 l 758 1389 l 758 1262 l 631 1262 l 631 1136 l 379 1136 z "},"Î":{"ha":947,"x_min":126,"x_max":884,"o":"m 126 0 l 126 126 l 379 126 l 379 884 l 126 884 l 126 1010 l 884 1010 l 884 884 l 631 884 l 631 126 l 884 126 l 884 0 l 126 0 m 189 1136 l 189 1262 l 315 1262 l 315 1389 l 694 1389 l 694 1262 l 821 1262 l 821 1136 l 568 1136 l 568 1262 l 442 1262 l 442 1136 l 189 1136 z "},"Ï":{"ha":947,"x_min":126,"x_max":884,"o":"m 126 0 l 126 126 l 379 126 l 379 884 l 126 884 l 126 1010 l 884 1010 l 884 884 l 631 884 l 631 126 l 884 126 l 884 0 l 126 0 m 189 1136 l 189 1389 l 442 1389 l 442 1136 l 189 1136 m 568 1136 l 568 1389 l 821 1389 l 821 1136 l 568 1136 z "},"Ð":{"ha":1199,"x_min":126,"x_max":1136,"o":"m 821 126 l 821 252 l 884 252 l 884 758 l 758 758 l 758 884 l 505 884 l 505 568 l 758 568 l 758 442 l 505 442 l 505 126 l 821 126 m 252 0 l 252 442 l 126 442 l 126 568 l 252 568 l 252 1010 l 884 1010 l 884 884 l 1010 884 l 1010 758 l 1136 758 l 1136 252 l 1010 252 l 1010 126 l 884 126 l 884 0 l 252 0 z "},"Ñ":{"ha":1073,"x_min":126,"x_max":1010,"o":"m 126 0 l 126 1010 l 252 1010 l 252 884 l 379 884 l 379 758 l 505 758 l 505 631 l 631 631 l 631 505 l 758 505 l 758 1010 l 1010 1010 l 1010 0 l 884 0 l 884 126 l 758 126 l 758 252 l 631 252 l 631 379 l 505 379 l 505 505 l 379 505 l 379 0 l 126 0 m 315 1136 l 315 1262 l 442 1262 l 442 1136 l 315 1136 m 568 1136 l 568 1262 l 694 1262 l 694 1136 l 568 1136 m 442 1262 l 442 1389 l 568 1389 l 568 1262 l 442 1262 m 694 1262 l 694 1389 l 821 1389 l 821 1262 l 694 1262 z "},"Ò":{"ha":1073,"x_min":126,"x_max":1010,"o":"m 758 126 l 758 884 l 379 884 l 379 126 l 758 126 m 252 0 l 252 126 l 126 126 l 126 884 l 252 884 l 252 1010 l 884 1010 l 884 884 l 1010 884 l 1010 126 l 884 126 l 884 0 l 252 0 m 442 1136 l 442 1262 l 315 1262 l 315 1389 l 568 1389 l 568 1262 l 694 1262 l 694 1136 l 442 1136 z "},"Ó":{"ha":1073,"x_min":126,"x_max":1010,"o":"m 758 126 l 758 884 l 379 884 l 379 126 l 758 126 m 252 0 l 252 126 l 126 126 l 126 884 l 252 884 l 252 1010 l 884 1010 l 884 884 l 1010 884 l 1010 126 l 884 126 l 884 0 l 252 0 m 442 1136 l 442 1262 l 568 1262 l 568 1389 l 821 1389 l 821 1262 l 694 1262 l 694 1136 l 442 1136 z "},"Ô":{"ha":1073,"x_min":126,"x_max":1010,"o":"m 758 126 l 758 884 l 379 884 l 379 126 l 758 126 m 252 0 l 252 126 l 126 126 l 126 884 l 252 884 l 252 1010 l 884 1010 l 884 884 l 1010 884 l 1010 126 l 884 126 l 884 0 l 252 0 m 252 1136 l 252 1262 l 379 1262 l 379 1389 l 758 1389 l 758 1262 l 884 1262 l 884 1136 l 631 1136 l 631 1262 l 505 1262 l 505 1136 l 252 1136 z "},"Õ":{"ha":1073,"x_min":126,"x_max":1010,"o":"m 758 126 l 758 884 l 379 884 l 379 126 l 758 126 m 252 0 l 252 126 l 126 126 l 126 884 l 252 884 l 252 1010 l 884 1010 l 884 884 l 1010 884 l 1010 126 l 884 126 l 884 0 l 252 0 m 315 1136 l 315 1262 l 442 1262 l 442 1136 l 315 1136 m 568 1136 l 568 1262 l 694 1262 l 694 1136 l 568 1136 m 442 1262 l 442 1389 l 568 1389 l 568 1262 l 442 1262 m 694 1262 l 694 1389 l 821 1389 l 821 1262 l 694 1262 z "},"Ö":{"ha":1073,"x_min":126,"x_max":1010,"o":"m 758 126 l 758 884 l 379 884 l 379 126 l 758 126 m 252 0 l 252 126 l 126 126 l 126 884 l 252 884 l 252 1010 l 884 1010 l 884 884 l 1010 884 l 1010 126 l 884 126 l 884 0 l 252 0 m 252 1136 l 252 1389 l 505 1389 l 505 1136 l 252 1136 m 631 1136 l 631 1389 l 884 1389 l 884 1136 l 631 1136 z "},"×":{"ha":821,"x_min":126,"x_max":758,"o":"m 126 252 l 126 379 l 252 379 l 252 252 l 126 252 m 631 252 l 631 379 l 758 379 l 758 252 l 631 252 m 252 379 l 252 505 l 379 505 l 379 379 l 252 379 m 505 379 l 505 505 l 631 505 l 631 379 l 505 379 m 379 505 l 379 631 l 505 631 l 505 505 l 379 505 m 252 631 l 252 758 l 379 758 l 379 631 l 252 631 m 505 631 l 505 758 l 631 758 l 631 631 l 505 631 m 126 758 l 126 884 l 252 884 l 252 758 l 126 758 m 631 758 l 631 884 l 758 884 l 758 758 l 631 758 z "},"Ø":{"ha":1073,"x_min":126,"x_max":1010,"o":"m 126 0 l 126 126 l 252 126 l 252 0 l 126 0 m 379 0 l 379 126 l 758 126 l 758 0 l 379 0 m 505 379 l 505 631 l 631 631 l 631 379 l 505 379 m 758 126 l 758 631 l 631 631 l 631 758 l 758 758 l 758 884 l 884 884 l 884 821 l 1010 821 l 1010 126 l 758 126 m 252 126 l 252 252 l 126 252 l 126 884 l 252 884 l 252 1010 l 758 1010 l 758 884 l 379 884 l 379 379 l 505 379 l 505 252 l 379 252 l 379 126 l 252 126 m 884 884 l 884 1010 l 1010 1010 l 1010 884 l 884 884 z "},"Ù":{"ha":1073,"x_min":126,"x_max":1010,"o":"m 252 0 l 252 126 l 126 126 l 126 1010 l 379 1010 l 379 126 l 758 126 l 758 1010 l 1010 1010 l 1010 126 l 884 126 l 884 0 l 252 0 m 442 1136 l 442 1262 l 315 1262 l 315 1389 l 568 1389 l 568 1262 l 694 1262 l 694 1136 l 442 1136 z "},"Ú":{"ha":1073,"x_min":126,"x_max":1010,"o":"m 252 0 l 252 126 l 126 126 l 126 1010 l 379 1010 l 379 126 l 758 126 l 758 1010 l 1010 1010 l 1010 126 l 884 126 l 884 0 l 252 0 m 442 1136 l 442 1262 l 568 1262 l 568 1389 l 821 1389 l 821 1262 l 694 1262 l 694 1136 l 442 1136 z "},"Û":{"ha":1073,"x_min":126,"x_max":1010,"o":"m 252 0 l 252 126 l 126 126 l 126 1010 l 379 1010 l 379 126 l 758 126 l 758 1010 l 1010 1010 l 1010 126 l 884 126 l 884 0 l 252 0 m 252 1136 l 252 1262 l 379 1262 l 379 1389 l 758 1389 l 758 1262 l 884 1262 l 884 1136 l 631 1136 l 631 1262 l 505 1262 l 505 1136 l 252 1136 z "},"Ü":{"ha":1073,"x_min":126,"x_max":1010,"o":"m 252 0 l 252 126 l 126 126 l 126 1010 l 379 1010 l 379 126 l 758 126 l 758 1010 l 1010 1010 l 1010 126 l 884 126 l 884 0 l 252 0 m 252 1136 l 252 1389 l 505 1389 l 505 1136 l 252 1136 m 631 1136 l 631 1389 l 884 1389 l 884 1136 l 631 1136 z "},"Ý":{"ha":1073,"x_min":126,"x_max":1010,"o":"m 442 0 l 442 379 l 379 379 l 379 505 l 252 505 l 252 631 l 126 631 l 126 1010 l 379 1010 l 379 631 l 505 631 l 505 505 l 631 505 l 631 631 l 758 631 l 758 1010 l 1010 1010 l 1010 631 l 884 631 l 884 505 l 758 505 l 758 379 l 694 379 l 694 0 l 442 0 m 442 1136 l 442 1262 l 568 1262 l 568 1389 l 821 1389 l 821 1262 l 694 1262 l 694 1136 l 442 1136 z "},"Þ":{"ha":1073,"x_min":126,"x_max":1010,"o":"m 758 252 l 758 758 l 379 758 l 379 252 l 758 252 m 126 0 l 126 1010 l 379 1010 l 379 884 l 884 884 l 884 758 l 1010 758 l 1010 252 l 884 252 l 884 126 l 379 126 l 379 0 l 126 0 z "},"ß":{"ha":1073,"x_min":126,"x_max":1010,"o":"m 126 0 l 126 1010 l 758 1010 l 758 884 l 884 884 l 884 631 l 758 631 l 758 379 l 884 379 l 884 252 l 1010 252 l 1010 126 l 884 126 l 884 0 l 505 0 l 505 126 l 442 126 l 442 252 l 631 252 l 631 126 l 758 126 l 758 252 l 631 252 l 631 379 l 505 379 l 505 631 l 631 631 l 631 884 l 379 884 l 379 0 l 126 0 z "},"à":{"ha":1073,"x_min":126,"x_max":1010,"o":"m 758 126 l 758 252 l 379 252 l 379 126 l 758 126 m 252 0 l 252 126 l 126 126 l 126 252 l 252 252 l 252 379 l 758 379 l 758 505 l 252 505 l 252 631 l 884 631 l 884 505 l 1010 505 l 1010 0 l 252 0 m 442 758 l 442 884 l 315 884 l 315 1010 l 568 1010 l 568 884 l 694 884 l 694 758 l 442 758 z "},"á":{"ha":1073,"x_min":126,"x_max":1010,"o":"m 758 126 l 758 252 l 379 252 l 379 126 l 758 126 m 252 0 l 252 126 l 126 126 l 126 252 l 252 252 l 252 379 l 758 379 l 758 505 l 252 505 l 252 631 l 884 631 l 884 505 l 1010 505 l 1010 0 l 252 0 m 442 758 l 442 884 l 568 884 l 568 1010 l 821 1010 l 821 884 l 694 884 l 694 758 l 442 758 z "},"â":{"ha":1073,"x_min":126,"x_max":1010,"o":"m 758 126 l 758 252 l 379 252 l 379 126 l 758 126 m 252 0 l 252 126 l 126 126 l 126 252 l 252 252 l 252 379 l 758 379 l 758 505 l 252 505 l 252 631 l 884 631 l 884 505 l 1010 505 l 1010 0 l 252 0 m 252 758 l 252 884 l 379 884 l 379 1010 l 758 1010 l 758 884 l 884 884 l 884 758 l 631 758 l 631 884 l 505 884 l 505 758 l 252 758 z "},"ã":{"ha":1073,"x_min":126,"x_max":1010,"o":"m 758 126 l 758 252 l 379 252 l 379 126 l 758 126 m 252 0 l 252 126 l 126 126 l 126 252 l 252 252 l 252 379 l 758 379 l 758 505 l 252 505 l 252 631 l 884 631 l 884 505 l 1010 505 l 1010 0 l 252 0 m 315 758 l 315 884 l 442 884 l 442 758 l 315 758 m 568 758 l 568 884 l 694 884 l 694 758 l 568 758 m 442 884 l 442 1010 l 568 1010 l 568 884 l 442 884 m 694 884 l 694 1010 l 821 1010 l 821 884 l 694 884 z "},"ä":{"ha":1073,"x_min":126,"x_max":1010,"o":"m 758 126 l 758 252 l 379 252 l 379 126 l 758 126 m 252 0 l 252 126 l 126 126 l 126 252 l 252 252 l 252 379 l 758 379 l 758 505 l 252 505 l 252 631 l 884 631 l 884 505 l 1010 505 l 1010 0 l 252 0 m 252 758 l 252 1010 l 505 1010 l 505 758 l 252 758 m 631 758 l 631 1010 l 884 1010 l 884 758 l 631 758 z "},"å":{"ha":1073,"x_min":126,"x_max":1010,"o":"m 758 126 l 758 252 l 379 252 l 379 126 l 758 126 m 252 0 l 252 126 l 126 126 l 126 252 l 252 252 l 252 379 l 758 379 l 758 505 l 252 505 l 252 631 l 505 631 l 505 758 l 631 758 l 631 631 l 884 631 l 884 505 l 1010 505 l 1010 0 l 252 0 m 379 758 l 379 884 l 505 884 l 505 758 l 379 758 m 631 758 l 631 884 l 758 884 l 758 758 l 631 758 m 505 884 l 505 1010 l 631 1010 l 631 884 l 505 884 z "},"æ":{"ha":1831,"x_min":126,"x_max":1768,"o":"m 758 126 l 758 252 l 379 252 l 379 126 l 758 126 m 1515 379 l 1515 505 l 1136 505 l 1136 379 l 1515 379 m 252 0 l 252 126 l 126 126 l 126 252 l 252 252 l 252 379 l 758 379 l 758 505 l 252 505 l 252 631 l 884 631 l 884 505 l 1010 505 l 1010 631 l 1641 631 l 1641 505 l 1768 505 l 1768 252 l 1136 252 l 1136 126 l 1641 126 l 1641 0 l 1010 0 l 1010 126 l 884 126 l 884 0 l 252 0 z "},"ç":{"ha":1073,"x_min":126,"x_max":1010,"o":"m 379 -252 l 379 -126 l 631 -126 l 631 0 l 252 0 l 252 126 l 126 126 l 126 505 l 252 505 l 252 631 l 884 631 l 884 505 l 1010 505 l 1010 379 l 758 379 l 758 505 l 379 505 l 379 126 l 758 126 l 758 252 l 1010 252 l 1010 126 l 884 126 l 884 -126 l 758 -126 l 758 -252 l 379 -252 z "},"è":{"ha":1073,"x_min":126,"x_max":1010,"o":"m 758 379 l 758 505 l 379 505 l 379 379 l 758 379 m 252 0 l 252 126 l 126 126 l 126 505 l 252 505 l 252 631 l 884 631 l 884 505 l 1010 505 l 1010 252 l 379 252 l 379 126 l 884 126 l 884 0 l 252 0 m 442 758 l 442 884 l 315 884 l 315 1010 l 568 1010 l 568 884 l 694 884 l 694 758 l 442 758 z "},"é":{"ha":1073,"x_min":126,"x_max":1010,"o":"m 758 379 l 758 505 l 379 505 l 379 379 l 758 379 m 252 0 l 252 126 l 126 126 l 126 505 l 252 505 l 252 631 l 884 631 l 884 505 l 1010 505 l 1010 252 l 379 252 l 379 126 l 884 126 l 884 0 l 252 0 m 442 758 l 442 884 l 568 884 l 568 1010 l 821 1010 l 821 884 l 694 884 l 694 758 l 442 758 z "},"ê":{"ha":1073,"x_min":126,"x_max":1010,"o":"m 758 379 l 758 505 l 379 505 l 379 379 l 758 379 m 252 0 l 252 126 l 126 126 l 126 505 l 252 505 l 252 631 l 884 631 l 884 505 l 1010 505 l 1010 252 l 379 252 l 379 126 l 884 126 l 884 0 l 252 0 m 252 758 l 252 884 l 379 884 l 379 1010 l 758 1010 l 758 884 l 884 884 l 884 758 l 631 758 l 631 884 l 505 884 l 505 758 l 252 758 z "},"ë":{"ha":1073,"x_min":126,"x_max":1010,"o":"m 758 379 l 758 505 l 379 505 l 379 379 l 758 379 m 252 0 l 252 126 l 126 126 l 126 505 l 252 505 l 252 631 l 884 631 l 884 505 l 1010 505 l 1010 252 l 379 252 l 379 126 l 884 126 l 884 0 l 252 0 m 252 758 l 252 1010 l 505 1010 l 505 758 l 252 758 m 631 758 l 631 1010 l 884 1010 l 884 758 l 631 758 z "},"ì":{"ha":442,"x_min":0,"x_max":379,"o":"m 126 0 l 126 631 l 379 631 l 379 0 l 126 0 m 126 758 l 126 884 l 0 884 l 0 1010 l 252 1010 l 252 884 l 379 884 l 379 758 l 126 758 z "},"í":{"ha":568,"x_min":126,"x_max":505,"o":"m 126 0 l 126 631 l 379 631 l 379 0 l 126 0 m 126 758 l 126 884 l 252 884 l 252 1010 l 505 1010 l 505 884 l 379 884 l 379 758 l 126 758 z "},"î":{"ha":631,"x_min":-63,"x_max":568,"o":"m 126 0 l 126 631 l 379 631 l 379 0 l 126 0 m -63 758 l -63 884 l 63 884 l 63 1010 l 442 1010 l 442 884 l 568 884 l 568 758 l 315 758 l 315 884 l 189 884 l 189 758 l -63 758 z "},"ï":{"ha":631,"x_min":-63,"x_max":568,"o":"m 126 0 l 126 631 l 379 631 l 379 0 l 126 0 m -63 758 l -63 1010 l 189 1010 l 189 758 l -63 758 m 315 758 l 315 1010 l 568 1010 l 568 758 l 315 758 z "},"ð":{"ha":1199,"x_min":126,"x_max":1136,"o":"m 758 126 l 758 505 l 379 505 l 379 126 l 758 126 m 252 0 l 252 126 l 126 126 l 126 505 l 252 505 l 252 631 l 758 631 l 758 758 l 505 758 l 505 884 l 758 884 l 758 1010 l 1010 1010 l 1010 884 l 1136 884 l 1136 758 l 1010 758 l 1010 126 l 884 126 l 884 0 l 252 0 z "},"ñ":{"ha":1073,"x_min":126,"x_max":1010,"o":"m 126 0 l 126 631 l 884 631 l 884 505 l 1010 505 l 1010 0 l 758 0 l 758 505 l 379 505 l 379 0 l 126 0 m 315 758 l 315 884 l 442 884 l 442 758 l 315 758 m 568 758 l 568 884 l 694 884 l 694 758 l 568 758 m 442 884 l 442 1010 l 568 1010 l 568 884 l 442 884 m 694 884 l 694 1010 l 821 1010 l 821 884 l 694 884 z "},"ò":{"ha":1073,"x_min":126,"x_max":1010,"o":"m 758 126 l 758 505 l 379 505 l 379 126 l 758 126 m 252 0 l 252 126 l 126 126 l 126 505 l 252 505 l 252 631 l 884 631 l 884 505 l 1010 505 l 1010 126 l 884 126 l 884 0 l 252 0 m 442 758 l 442 884 l 315 884 l 315 1010 l 568 1010 l 568 884 l 694 884 l 694 758 l 442 758 z "},"ó":{"ha":1073,"x_min":126,"x_max":1010,"o":"m 758 126 l 758 505 l 379 505 l 379 126 l 758 126 m 252 0 l 252 126 l 126 126 l 126 505 l 252 505 l 252 631 l 884 631 l 884 505 l 1010 505 l 1010 126 l 884 126 l 884 0 l 252 0 m 442 758 l 442 884 l 568 884 l 568 1010 l 821 1010 l 821 884 l 694 884 l 694 758 l 442 758 z "},"ô":{"ha":1073,"x_min":126,"x_max":1010,"o":"m 758 126 l 758 505 l 379 505 l 379 126 l 758 126 m 252 0 l 252 126 l 126 126 l 126 505 l 252 505 l 252 631 l 884 631 l 884 505 l 1010 505 l 1010 126 l 884 126 l 884 0 l 252 0 m 252 758 l 252 884 l 379 884 l 379 1010 l 758 1010 l 758 884 l 884 884 l 884 758 l 631 758 l 631 884 l 505 884 l 505 758 l 252 758 z "},"õ":{"ha":1073,"x_min":126,"x_max":1010,"o":"m 758 126 l 758 505 l 379 505 l 379 126 l 758 126 m 252 0 l 252 126 l 126 126 l 126 505 l 252 505 l 252 631 l 884 631 l 884 505 l 1010 505 l 1010 126 l 884 126 l 884 0 l 252 0 m 315 758 l 315 884 l 442 884 l 442 758 l 315 758 m 568 758 l 568 884 l 694 884 l 694 758 l 568 758 m 442 884 l 442 1010 l 568 1010 l 568 884 l 442 884 m 694 884 l 694 1010 l 821 1010 l 821 884 l 694 884 z "},"ö":{"ha":1073,"x_min":126,"x_max":1010,"o":"m 758 126 l 758 505 l 379 505 l 379 126 l 758 126 m 252 0 l 252 126 l 126 126 l 126 505 l 252 505 l 252 631 l 884 631 l 884 505 l 1010 505 l 1010 126 l 884 126 l 884 0 l 252 0 m 252 758 l 252 1010 l 505 1010 l 505 758 l 252 758 m 631 758 l 631 1010 l 884 1010 l 884 758 l 631 758 z "},"÷":{"ha":947,"x_min":126,"x_max":884,"o":"m 379 126 l 379 252 l 631 252 l 631 126 l 379 126 m 126 379 l 126 505 l 884 505 l 884 379 l 126 379 m 379 631 l 379 758 l 631 758 l 631 631 l 379 631 z "},"ø":{"ha":1073,"x_min":126,"x_max":1010,"o":"m 758 126 l 758 379 l 694 379 l 694 315 l 631 315 l 631 252 l 568 252 l 568 189 l 505 189 l 505 126 l 758 126 m 442 252 l 442 315 l 505 315 l 505 379 l 568 379 l 568 442 l 631 442 l 631 505 l 379 505 l 379 252 l 442 252 m 126 0 l 126 126 l 189 126 l 189 189 l 252 189 l 252 252 l 126 252 l 126 505 l 252 505 l 252 631 l 758 631 l 758 568 l 821 568 l 821 631 l 1010 631 l 1010 505 l 947 505 l 947 442 l 884 442 l 884 379 l 1010 379 l 1010 126 l 884 126 l 884 0 l 379 0 l 379 63 l 252 63 l 252 0 l 126 0 z "},"ù":{"ha":1073,"x_min":126,"x_max":1010,"o":"m 252 0 l 252 126 l 126 126 l 126 631 l 379 631 l 379 126 l 758 126 l 758 631 l 1010 631 l 1010 0 l 252 0 m 442 758 l 442 884 l 315 884 l 315 1010 l 568 1010 l 568 884 l 694 884 l 694 758 l 442 758 z "},"ú":{"ha":1073,"x_min":126,"x_max":1010,"o":"m 252 0 l 252 126 l 126 126 l 126 631 l 379 631 l 379 126 l 758 126 l 758 631 l 1010 631 l 1010 0 l 252 0 m 442 758 l 442 884 l 568 884 l 568 1010 l 821 1010 l 821 884 l 694 884 l 694 758 l 442 758 z "},"û":{"ha":1073,"x_min":126,"x_max":1010,"o":"m 252 0 l 252 126 l 126 126 l 126 631 l 379 631 l 379 126 l 758 126 l 758 631 l 1010 631 l 1010 0 l 252 0 m 252 758 l 252 884 l 379 884 l 379 1010 l 758 1010 l 758 884 l 884 884 l 884 758 l 631 758 l 631 884 l 505 884 l 505 758 l 252 758 z "},"ü":{"ha":1073,"x_min":126,"x_max":1010,"o":"m 252 0 l 252 126 l 126 126 l 126 631 l 379 631 l 379 126 l 758 126 l 758 631 l 1010 631 l 1010 0 l 252 0 m 252 758 l 252 1010 l 505 1010 l 505 758 l 252 758 m 631 758 l 631 1010 l 884 1010 l 884 758 l 631 758 z "},"ý":{"ha":1073,"x_min":126,"x_max":1010,"o":"m 252 -379 l 252 -252 l 758 -252 l 758 0 l 252 0 l 252 126 l 126 126 l 126 631 l 379 631 l 379 126 l 758 126 l 758 631 l 1010 631 l 1010 -252 l 884 -252 l 884 -379 l 252 -379 m 442 758 l 442 884 l 568 884 l 568 1010 l 821 1010 l 821 884 l 694 884 l 694 758 l 442 758 z "},"þ":{"ha":1073,"x_min":126,"x_max":1010,"o":"m 758 126 l 758 505 l 379 505 l 379 126 l 758 126 m 126 -379 l 126 1010 l 379 1010 l 379 631 l 884 631 l 884 505 l 1010 505 l 1010 126 l 884 126 l 884 0 l 379 0 l 379 -379 l 126 -379 z "},"ÿ":{"ha":1073,"x_min":126,"x_max":1010,"o":"m 252 -379 l 252 -252 l 758 -252 l 758 0 l 252 0 l 252 126 l 126 126 l 126 631 l 379 631 l 379 126 l 758 126 l 758 631 l 1010 631 l 1010 -252 l 884 -252 l 884 -379 l 252 -379 m 252 758 l 252 1010 l 505 1010 l 505 758 l 252 758 m 631 758 l 631 1010 l 884 1010 l 884 758 l 631 758 z "},"Ÿ":{"ha":1073,"x_min":126,"x_max":1010,"o":"m 442 0 l 442 379 l 379 379 l 379 505 l 252 505 l 252 631 l 126 631 l 126 1010 l 379 1010 l 379 631 l 505 631 l 505 505 l 631 505 l 631 631 l 758 631 l 758 1010 l 1010 1010 l 1010 631 l 884 631 l 884 505 l 758 505 l 758 379 l 694 379 l 694 0 l 442 0 m 252 1136 l 252 1389 l 505 1389 l 505 1136 l 252 1136 m 631 1136 l 631 1389 l 884 1389 l 884 1136 l 631 1136 z "},"Α":{"ha":1073,"x_min":126,"x_max":1010,"o":"m 758 505 l 758 758 l 631 758 l 631 884 l 505 884 l 505 758 l 379 758 l 379 505 l 758 505 m 126 0 l 126 758 l 252 758 l 252 884 l 379 884 l 379 1010 l 758 1010 l 758 884 l 884 884 l 884 758 l 1010 758 l 1010 0 l 758 0 l 758 379 l 379 379 l 379 0 l 126 0 z "},"Β":{"ha":1073,"x_min":126,"x_max":1010,"o":"m 758 126 l 758 505 l 379 505 l 379 126 l 758 126 m 758 631 l 758 884 l 379 884 l 379 631 l 758 631 m 126 0 l 126 1010 l 884 1010 l 884 884 l 1010 884 l 1010 631 l 884 631 l 884 505 l 1010 505 l 1010 126 l 884 126 l 884 0 l 126 0 z "},"Γ":{"ha":947,"x_min":126,"x_max":884,"o":"m 126 0 l 126 1010 l 884 1010 l 884 884 l 379 884 l 379 0 l 126 0 z "},"Δ":{"ha":1452,"x_min":126,"x_max":1389,"o":"m 1010 189 l 1010 442 l 884 442 l 884 694 l 821 694 l 821 821 l 694 821 l 694 694 l 631 694 l 631 442 l 505 442 l 505 189 l 1010 189 m 126 0 l 126 189 l 252 189 l 252 442 l 379 442 l 379 694 l 505 694 l 505 884 l 631 884 l 631 1010 l 884 1010 l 884 884 l 1010 884 l 1010 694 l 1136 694 l 1136 442 l 1262 442 l 1262 189 l 1389 189 l 1389 0 l 126 0 z "},"Ε":{"ha":1073,"x_min":126,"x_max":1010,"o":"m 126 0 l 126 1010 l 1010 1010 l 1010 884 l 379 884 l 379 631 l 758 631 l 758 505 l 379 505 l 379 126 l 1010 126 l 1010 0 l 126 0 z "},"Ζ":{"ha":1073,"x_min":126,"x_max":1010,"o":"m 126 0 l 126 252 l 252 252 l 252 379 l 379 379 l 379 505 l 505 505 l 505 631 l 631 631 l 631 758 l 758 758 l 758 884 l 126 884 l 126 1010 l 1010 1010 l 1010 758 l 884 758 l 884 631 l 758 631 l 758 505 l 631 505 l 631 379 l 505 379 l 505 252 l 379 252 l 379 126 l 1010 126 l 1010 0 l 126 0 z "},"Η":{"ha":1073,"x_min":126,"x_max":1010,"o":"m 126 0 l 126 1010 l 379 1010 l 379 631 l 758 631 l 758 1010 l 1010 1010 l 1010 0 l 758 0 l 758 505 l 379 505 l 379 0 l 126 0 z "},"Θ":{"ha":1073,"x_min":126,"x_max":1010,"o":"m 442 442 l 442 568 l 694 568 l 694 442 l 442 442 m 758 126 l 758 884 l 379 884 l 379 126 l 758 126 m 252 0 l 252 126 l 126 126 l 126 884 l 252 884 l 252 1010 l 884 1010 l 884 884 l 1010 884 l 1010 126 l 884 126 l 884 0 l 252 0 z "},"Ι":{"ha":947,"x_min":126,"x_max":884,"o":"m 126 0 l 126 126 l 379 126 l 379 884 l 126 884 l 126 1010 l 884 1010 l 884 884 l 631 884 l 631 126 l 884 126 l 884 0 l 126 0 z "},"Κ":{"ha":1073,"x_min":126,"x_max":1010,"o":"m 126 0 l 126 1010 l 379 1010 l 379 631 l 505 631 l 505 758 l 631 758 l 631 884 l 758 884 l 758 1010 l 1010 1010 l 1010 884 l 884 884 l 884 758 l 758 758 l 758 631 l 631 631 l 631 505 l 758 505 l 758 379 l 884 379 l 884 252 l 1010 252 l 1010 0 l 758 0 l 758 252 l 631 252 l 631 379 l 505 379 l 505 505 l 379 505 l 379 0 l 126 0 z "},"Λ":{"ha":1452,"x_min":126,"x_max":1389,"o":"m 126 0 l 126 189 l 252 189 l 252 442 l 379 442 l 379 694 l 505 694 l 505 884 l 631 884 l 631 1010 l 884 1010 l 884 884 l 1010 884 l 1010 694 l 1136 694 l 1136 442 l 1262 442 l 1262 189 l 1389 189 l 1389 0 l 1136 0 l 1136 189 l 1010 189 l 1010 442 l 884 442 l 884 694 l 821 694 l 821 821 l 694 821 l 694 694 l 631 694 l 631 442 l 505 442 l 505 189 l 379 189 l 379 0 l 126 0 z "},"Μ":{"ha":1073,"x_min":126,"x_max":1010,"o":"m 126 0 l 126 1010 l 252 1010 l 252 884 l 379 884 l 379 758 l 505 758 l 505 631 l 631 631 l 631 758 l 758 758 l 758 884 l 884 884 l 884 1010 l 1010 1010 l 1010 0 l 758 0 l 758 505 l 631 505 l 631 379 l 505 379 l 505 505 l 379 505 l 379 0 l 126 0 z "},"Ν":{"ha":1073,"x_min":126,"x_max":1010,"o":"m 126 0 l 126 1010 l 252 1010 l 252 884 l 379 884 l 379 758 l 505 758 l 505 631 l 631 631 l 631 505 l 758 505 l 758 1010 l 1010 1010 l 1010 0 l 884 0 l 884 126 l 758 126 l 758 252 l 631 252 l 631 379 l 505 379 l 505 505 l 379 505 l 379 0 l 126 0 z "},"Ξ":{"ha":1073,"x_min":126,"x_max":1010,"o":"m 126 0 l 126 126 l 1010 126 l 1010 0 l 126 0 m 315 442 l 315 568 l 821 568 l 821 442 l 315 442 m 126 884 l 126 1010 l 1010 1010 l 1010 884 l 126 884 z "},"Ο":{"ha":1073,"x_min":126,"x_max":1010,"o":"m 758 126 l 758 884 l 379 884 l 379 126 l 758 126 m 252 0 l 252 126 l 126 126 l 126 884 l 252 884 l 252 1010 l 884 1010 l 884 884 l 1010 884 l 1010 126 l 884 126 l 884 0 l 252 0 z "},"Π":{"ha":1325,"x_min":126,"x_max":1262,"o":"m 252 0 l 252 884 l 126 884 l 126 1010 l 1262 1010 l 1262 884 l 1136 884 l 1136 0 l 884 0 l 884 884 l 505 884 l 505 0 l 252 0 z "},"Ρ":{"ha":1073,"x_min":126,"x_max":1010,"o":"m 758 631 l 758 884 l 379 884 l 379 631 l 758 631 m 126 0 l 126 1010 l 884 1010 l 884 884 l 1010 884 l 1010 631 l 884 631 l 884 505 l 379 505 l 379 0 l 126 0 z "},"Σ":{"ha":1073,"x_min":126,"x_max":1010,"o":"m 126 0 l 126 315 l 252 315 l 252 442 l 379 442 l 379 568 l 252 568 l 252 694 l 126 694 l 126 1010 l 1010 1010 l 1010 884 l 379 884 l 379 694 l 505 694 l 505 568 l 631 568 l 631 442 l 505 442 l 505 315 l 379 315 l 379 126 l 1010 126 l 1010 0 l 126 0 z "},"Τ":{"ha":1073,"x_min":126,"x_max":1010,"o":"m 379 0 l 379 884 l 126 884 l 126 1010 l 1010 1010 l 1010 884 l 694 884 l 694 0 l 379 0 z "},"Υ":{"ha":1325,"x_min":126,"x_max":1262,"o":"m 568 0 l 568 379 l 505 379 l 505 505 l 379 505 l 379 631 l 252 631 l 252 884 l 126 884 l 126 1010 l 379 1010 l 379 884 l 505 884 l 505 631 l 631 631 l 631 505 l 758 505 l 758 631 l 884 631 l 884 884 l 1010 884 l 1010 1010 l 1262 1010 l 1262 884 l 1136 884 l 1136 631 l 1010 631 l 1010 505 l 884 505 l 884 379 l 821 379 l 821 0 l 568 0 z "},"Φ":{"ha":1325,"x_min":126,"x_max":1262,"o":"m 568 252 l 568 758 l 379 758 l 379 252 l 568 252 m 1010 252 l 1010 758 l 821 758 l 821 252 l 1010 252 m 568 0 l 568 126 l 252 126 l 252 252 l 126 252 l 126 758 l 252 758 l 252 884 l 568 884 l 568 1010 l 821 1010 l 821 884 l 1136 884 l 1136 758 l 1262 758 l 1262 252 l 1136 252 l 1136 126 l 821 126 l 821 0 l 568 0 z "},"Χ":{"ha":1073,"x_min":126,"x_max":1010,"o":"m 126 0 l 126 379 l 252 379 l 252 505 l 379 505 l 379 631 l 252 631 l 252 758 l 126 758 l 126 1010 l 379 1010 l 379 758 l 505 758 l 505 631 l 631 631 l 631 758 l 758 758 l 758 1010 l 1010 1010 l 1010 758 l 884 758 l 884 631 l 758 631 l 758 505 l 884 505 l 884 379 l 1010 379 l 1010 0 l 758 0 l 758 379 l 631 379 l 631 505 l 505 505 l 505 379 l 379 379 l 379 0 l 126 0 z "},"Ψ":{"ha":1578,"x_min":126,"x_max":1515,"o":"m 694 0 l 694 379 l 631 379 l 631 505 l 505 505 l 505 631 l 379 631 l 379 758 l 252 758 l 252 884 l 126 884 l 126 1010 l 379 1010 l 379 884 l 505 884 l 505 758 l 631 758 l 631 631 l 694 631 l 694 1010 l 947 1010 l 947 631 l 1010 631 l 1010 758 l 1136 758 l 1136 884 l 1262 884 l 1262 1010 l 1515 1010 l 1515 884 l 1389 884 l 1389 758 l 1262 758 l 1262 631 l 1136 631 l 1136 505 l 1010 505 l 1010 379 l 947 379 l 947 0 l 694 0 z "},"Ω":{"ha":1578,"x_min":126,"x_max":1515,"o":"m 126 0 l 126 126 l 505 126 l 505 252 l 379 252 l 379 379 l 252 379 l 252 505 l 126 505 l 126 758 l 252 758 l 252 884 l 379 884 l 379 1010 l 1262 1010 l 1262 884 l 1389 884 l 1389 758 l 1515 758 l 1515 505 l 1389 505 l 1389 379 l 1262 379 l 1262 252 l 1136 252 l 1136 126 l 1515 126 l 1515 0 l 884 0 l 884 252 l 1010 252 l 1010 379 l 1136 379 l 1136 505 l 1262 505 l 1262 758 l 1136 758 l 1136 884 l 505 884 l 505 758 l 379 758 l 379 505 l 505 505 l 505 379 l 631 379 l 631 252 l 758 252 l 758 0 l 126 0 z "},"α":{"ha":1073,"x_min":126,"x_max":1010,"o":"m 505 126 l 505 252 l 631 252 l 631 379 l 505 379 l 505 505 l 379 505 l 379 126 l 505 126 m 252 0 l 252 126 l 126 126 l 126 505 l 252 505 l 252 631 l 631 631 l 631 505 l 758 505 l 758 631 l 1010 631 l 1010 505 l 884 505 l 884 126 l 1010 126 l 1010 0 l 758 0 l 758 126 l 631 126 l 631 0 l 252 0 z "},"β":{"ha":1073,"x_min":126,"x_max":1010,"o":"m 126 -379 l 126 758 l 252 758 l 252 884 l 379 884 l 379 1010 l 884 1010 l 884 884 l 1010 884 l 1010 568 l 884 568 l 884 442 l 1010 442 l 1010 252 l 884 252 l 884 126 l 758 126 l 758 0 l 505 0 l 505 126 l 631 126 l 631 252 l 758 252 l 758 442 l 505 442 l 505 568 l 758 568 l 758 884 l 505 884 l 505 758 l 379 758 l 379 252 l 505 252 l 505 126 l 379 126 l 379 -379 l 126 -379 z "},"Ё":{"ha":1073,"x_min":126,"x_max":1010,"o":"m 126 0 l 126 1010 l 1010 1010 l 1010 884 l 379 884 l 379 631 l 758 631 l 758 505 l 379 505 l 379 126 l 1010 126 l 1010 0 l 126 0 m 252 1136 l 252 1389 l 505 1389 l 505 1136 l 252 1136 m 631 1136 l 631 1389 l 884 1389 l 884 1136 l 631 1136 z "},"Є":{"ha":1073,"x_min":126,"x_max":1010,"o":"m 379 0 l 379 126 l 252 126 l 252 252 l 126 252 l 126 758 l 252 758 l 252 884 l 379 884 l 379 1010 l 884 1010 l 884 884 l 1010 884 l 1010 758 l 758 758 l 758 884 l 505 884 l 505 758 l 379 758 l 379 568 l 758 568 l 758 442 l 379 442 l 379 252 l 505 252 l 505 126 l 758 126 l 758 252 l 1010 252 l 1010 126 l 884 126 l 884 0 l 379 0 z "},"І":{"ha":947,"x_min":126,"x_max":884,"o":"m 126 0 l 126 126 l 379 126 l 379 884 l 126 884 l 126 1010 l 884 1010 l 884 884 l 631 884 l 631 126 l 884 126 l 884 0 l 126 0 z "},"Ї":{"ha":1010,"x_min":126,"x_max":947,"o":"m 126 0 l 126 126 l 379 126 l 379 884 l 126 884 l 126 1010 l 884 1010 l 884 884 l 694 884 l 694 126 l 947 126 l 947 0 l 126 0 m 189 1136 l 189 1389 l 442 1389 l 442 1136 l 189 1136 m 568 1136 l 568 1389 l 821 1389 l 821 1136 l 568 1136 z "},"Љ":{"ha":1641,"x_min":126,"x_max":1578,"o":"m 1325 126 l 1325 505 l 1010 505 l 1010 126 l 1325 126 m 126 0 l 126 126 l 252 126 l 252 884 l 379 884 l 379 1010 l 1010 1010 l 1010 631 l 1452 631 l 1452 505 l 1578 505 l 1578 126 l 1452 126 l 1452 0 l 758 0 l 758 884 l 505 884 l 505 126 l 379 126 l 379 0 l 126 0 z "},"Њ":{"ha":1578,"x_min":126,"x_max":1515,"o":"m 1262 126 l 1262 505 l 1010 505 l 1010 126 l 1262 126 m 126 0 l 126 1010 l 379 1010 l 379 631 l 758 631 l 758 1010 l 1010 1010 l 1010 631 l 1389 631 l 1389 505 l 1515 505 l 1515 126 l 1389 126 l 1389 0 l 758 0 l 758 505 l 379 505 l 379 0 l 126 0 z "},"А":{"ha":1073,"x_min":126,"x_max":1010,"o":"m 758 568 l 758 758 l 631 758 l 631 884 l 505 884 l 505 758 l 379 758 l 379 568 l 758 568 m 126 0 l 126 758 l 252 758 l 252 884 l 379 884 l 379 1010 l 758 1010 l 758 884 l 884 884 l 884 758 l 1010 758 l 1010 0 l 758 0 l 758 442 l 379 442 l 379 0 l 126 0 z "},"Б":{"ha":1073,"x_min":126,"x_max":1010,"o":"m 758 126 l 758 505 l 379 505 l 379 126 l 758 126 m 126 0 l 126 1010 l 884 1010 l 884 884 l 379 884 l 379 631 l 884 631 l 884 505 l 1010 505 l 1010 126 l 884 126 l 884 0 l 126 0 z "},"В":{"ha":1073,"x_min":126,"x_max":1010,"o":"m 758 126 l 758 505 l 379 505 l 379 126 l 758 126 m 758 631 l 758 884 l 379 884 l 379 631 l 758 631 m 126 0 l 126 1010 l 884 1010 l 884 884 l 1010 884 l 1010 631 l 884 631 l 884 505 l 1010 505 l 1010 126 l 884 126 l 884 0 l 126 0 z "},"Г":{"ha":947,"x_min":126,"x_max":884,"o":"m 126 0 l 126 1010 l 884 1010 l 884 884 l 379 884 l 379 0 l 126 0 z "},"Д":{"ha":1199,"x_min":126,"x_max":1136,"o":"m 758 126 l 758 884 l 505 884 l 505 126 l 758 126 m 126 -189 l 126 126 l 252 126 l 252 884 l 379 884 l 379 1010 l 1010 1010 l 1010 126 l 1136 126 l 1136 -189 l 884 -189 l 884 0 l 379 0 l 379 -189 l 126 -189 z "},"Е":{"ha":1073,"x_min":126,"x_max":1010,"o":"m 126 0 l 126 1010 l 1010 1010 l 1010 884 l 379 884 l 379 631 l 758 631 l 758 505 l 379 505 l 379 126 l 1010 126 l 1010 0 l 126 0 z "},"Ж":{"ha":1199,"x_min":126,"x_max":1136,"o":"m 126 0 l 126 505 l 252 505 l 252 631 l 126 631 l 126 1010 l 379 1010 l 379 631 l 505 631 l 505 1010 l 758 1010 l 758 631 l 884 631 l 884 1010 l 1136 1010 l 1136 631 l 1010 631 l 1010 505 l 1136 505 l 1136 0 l 884 0 l 884 505 l 758 505 l 758 0 l 505 0 l 505 505 l 379 505 l 379 0 l 126 0 z "},"З":{"ha":1073,"x_min":126,"x_max":1010,"o":"m 252 0 l 252 126 l 126 126 l 126 252 l 379 252 l 379 126 l 758 126 l 758 442 l 442 442 l 442 568 l 758 568 l 758 884 l 379 884 l 379 758 l 126 758 l 126 884 l 252 884 l 252 1010 l 884 1010 l 884 884 l 1010 884 l 1010 568 l 884 568 l 884 442 l 1010 442 l 1010 126 l 884 126 l 884 0 l 252 0 z "},"И":{"ha":1073,"x_min":126,"x_max":1010,"o":"m 126 0 l 126 1010 l 379 1010 l 379 505 l 505 505 l 505 631 l 631 631 l 631 758 l 758 758 l 758 884 l 884 884 l 884 1010 l 1010 1010 l 1010 0 l 758 0 l 758 505 l 631 505 l 631 379 l 505 379 l 505 252 l 379 252 l 379 126 l 252 126 l 252 0 l 126 0 z "},"Й":{"ha":1073,"x_min":126,"x_max":1010,"o":"m 126 0 l 126 1010 l 379 1010 l 379 505 l 505 505 l 505 631 l 631 631 l 631 758 l 758 758 l 758 884 l 884 884 l 884 1010 l 1010 1010 l 1010 0 l 758 0 l 758 505 l 631 505 l 631 379 l 505 379 l 505 252 l 379 252 l 379 126 l 252 126 l 252 0 l 126 0 m 315 1136 l 315 1262 l 189 1262 l 189 1389 l 442 1389 l 442 1262 l 694 1262 l 694 1389 l 947 1389 l 947 1262 l 821 1262 l 821 1136 l 315 1136 z "},"К":{"ha":1073,"x_min":126,"x_max":1010,"o":"m 126 0 l 126 1010 l 379 1010 l 379 631 l 505 631 l 505 758 l 631 758 l 631 884 l 758 884 l 758 1010 l 1010 1010 l 1010 884 l 884 884 l 884 758 l 758 758 l 758 631 l 631 631 l 631 505 l 758 505 l 758 379 l 884 379 l 884 252 l 1010 252 l 1010 0 l 758 0 l 758 252 l 631 252 l 631 379 l 505 379 l 505 505 l 379 505 l 379 0 l 126 0 z "},"Л":{"ha":1073,"x_min":126,"x_max":1010,"o":"m 126 0 l 126 126 l 252 126 l 252 884 l 379 884 l 379 1010 l 1010 1010 l 1010 0 l 758 0 l 758 884 l 505 884 l 505 126 l 379 126 l 379 0 l 126 0 z "},"М":{"ha":1073,"x_min":126,"x_max":1010,"o":"m 126 0 l 126 1010 l 252 1010 l 252 884 l 379 884 l 379 758 l 505 758 l 505 631 l 631 631 l 631 758 l 758 758 l 758 884 l 884 884 l 884 1010 l 1010 1010 l 1010 0 l 758 0 l 758 505 l 631 505 l 631 379 l 505 379 l 505 505 l 379 505 l 379 0 l 126 0 z "},"Н":{"ha":1073,"x_min":126,"x_max":1010,"o":"m 126 0 l 126 1010 l 379 1010 l 379 631 l 758 631 l 758 1010 l 1010 1010 l 1010 0 l 758 0 l 758 505 l 379 505 l 379 0 l 126 0 z "},"О":{"ha":1073,"x_min":126,"x_max":1010,"o":"m 758 126 l 758 884 l 379 884 l 379 126 l 758 126 m 252 0 l 252 126 l 126 126 l 126 884 l 252 884 l 252 1010 l 884 1010 l 884 884 l 1010 884 l 1010 126 l 884 126 l 884 0 l 252 0 z "},"П":{"ha":1073,"x_min":126,"x_max":1010,"o":"m 126 0 l 126 1010 l 1010 1010 l 1010 0 l 758 0 l 758 884 l 379 884 l 379 0 l 126 0 z "},"Р":{"ha":1073,"x_min":126,"x_max":1010,"o":"m 758 631 l 758 884 l 379 884 l 379 631 l 758 631 m 126 0 l 126 1010 l 884 1010 l 884 884 l 1010 884 l 1010 631 l 884 631 l 884 505 l 379 505 l 379 0 l 126 0 z "},"С":{"ha":1073,"x_min":126,"x_max":1010,"o":"m 379 0 l 379 126 l 252 126 l 252 252 l 126 252 l 126 758 l 252 758 l 252 884 l 379 884 l 379 1010 l 884 1010 l 884 884 l 1010 884 l 1010 758 l 758 758 l 758 884 l 505 884 l 505 758 l 379 758 l 379 252 l 505 252 l 505 126 l 758 126 l 758 252 l 1010 252 l 1010 126 l 884 126 l 884 0 l 379 0 z "},"Т":{"ha":1073,"x_min":126,"x_max":1010,"o":"m 442 0 l 442 884 l 126 884 l 126 1010 l 1010 1010 l 1010 884 l 694 884 l 694 0 l 442 0 z "},"У":{"ha":1073,"x_min":126,"x_max":1010,"o":"m 252 0 l 252 126 l 126 126 l 126 252 l 379 252 l 379 126 l 758 126 l 758 442 l 252 442 l 252 568 l 126 568 l 126 1010 l 379 1010 l 379 568 l 758 568 l 758 1010 l 1010 1010 l 1010 126 l 884 126 l 884 0 l 252 0 z "},"Ф":{"ha":1452,"x_min":126,"x_max":1389,"o":"m 631 252 l 631 758 l 379 758 l 379 252 l 631 252 m 1136 252 l 1136 758 l 884 758 l 884 252 l 1136 252 m 631 0 l 631 126 l 252 126 l 252 252 l 126 252 l 126 758 l 252 758 l 252 884 l 631 884 l 631 1010 l 884 1010 l 884 884 l 1262 884 l 1262 758 l 1389 758 l 1389 252 l 1262 252 l 1262 126 l 884 126 l 884 0 l 631 0 z "},"Х":{"ha":1073,"x_min":126,"x_max":1010,"o":"m 126 0 l 126 379 l 252 379 l 252 505 l 379 505 l 379 631 l 252 631 l 252 758 l 126 758 l 126 1010 l 379 1010 l 379 758 l 505 758 l 505 631 l 631 631 l 631 758 l 758 758 l 758 1010 l 1010 1010 l 1010 758 l 884 758 l 884 631 l 758 631 l 758 505 l 884 505 l 884 379 l 1010 379 l 1010 0 l 758 0 l 758 379 l 631 379 l 631 505 l 505 505 l 505 379 l 379 379 l 379 0 l 126 0 z "},"Ц":{"ha":1199,"x_min":126,"x_max":1136,"o":"m 884 -189 l 884 0 l 126 0 l 126 1010 l 379 1010 l 379 126 l 758 126 l 758 1010 l 1010 1010 l 1010 126 l 1136 126 l 1136 -189 l 884 -189 z "},"Ч":{"ha":1073,"x_min":126,"x_max":1010,"o":"m 758 0 l 758 442 l 252 442 l 252 568 l 126 568 l 126 1010 l 379 1010 l 379 568 l 758 568 l 758 1010 l 1010 1010 l 1010 0 l 758 0 z "},"Ш":{"ha":1325,"x_min":126,"x_max":1262,"o":"m 126 0 l 126 1010 l 379 1010 l 379 126 l 568 126 l 568 1010 l 821 1010 l 821 126 l 1010 126 l 1010 1010 l 1262 1010 l 1262 0 l 126 0 z "},"Щ":{"ha":1452,"x_min":126,"x_max":1389,"o":"m 1136 -189 l 1136 0 l 126 0 l 126 1010 l 379 1010 l 379 126 l 568 126 l 568 1010 l 821 1010 l 821 126 l 1010 126 l 1010 1010 l 1262 1010 l 1262 126 l 1389 126 l 1389 -189 l 1136 -189 z "},"Ъ":{"ha":1262,"x_min":126,"x_max":1199,"o":"m 947 126 l 947 505 l 568 505 l 568 126 l 947 126 m 315 0 l 315 884 l 126 884 l 126 1010 l 568 1010 l 568 631 l 1073 631 l 1073 505 l 1199 505 l 1199 126 l 1073 126 l 1073 0 l 315 0 z "},"Ы":{"ha":1452,"x_min":126,"x_max":1389,"o":"m 758 126 l 758 505 l 379 505 l 379 126 l 758 126 m 126 0 l 126 1010 l 379 1010 l 379 631 l 884 631 l 884 505 l 1010 505 l 1010 126 l 884 126 l 884 0 l 126 0 m 1136 0 l 1136 1010 l 1389 1010 l 1389 0 l 1136 0 z "},"Ь":{"ha":1073,"x_min":126,"x_max":1010,"o":"m 758 126 l 758 505 l 379 505 l 379 126 l 758 126 m 126 0 l 126 1010 l 379 1010 l 379 631 l 884 631 l 884 505 l 1010 505 l 1010 126 l 884 126 l 884 0 l 126 0 z "},"Э":{"ha":1073,"x_min":126,"x_max":1010,"o":"m 252 0 l 252 126 l 126 126 l 126 252 l 379 252 l 379 126 l 631 126 l 631 252 l 758 252 l 758 442 l 379 442 l 379 568 l 758 568 l 758 758 l 631 758 l 631 884 l 379 884 l 379 758 l 126 758 l 126 884 l 252 884 l 252 1010 l 758 1010 l 758 884 l 884 884 l 884 758 l 1010 758 l 1010 252 l 884 252 l 884 126 l 758 126 l 758 0 l 252 0 z "},"Ю":{"ha":1515,"x_min":126,"x_max":1452,"o":"m 1199 126 l 1199 884 l 821 884 l 821 126 l 1199 126 m 126 0 l 126 1010 l 442 1010 l 442 568 l 568 568 l 568 884 l 694 884 l 694 1010 l 1325 1010 l 1325 884 l 1452 884 l 1452 126 l 1325 126 l 1325 0 l 694 0 l 694 126 l 568 126 l 568 442 l 442 442 l 442 0 l 126 0 z "},"Я":{"ha":1073,"x_min":126,"x_max":1010,"o":"m 758 631 l 758 884 l 379 884 l 379 631 l 758 631 m 126 0 l 126 505 l 252 505 l 252 631 l 126 631 l 126 884 l 252 884 l 252 1010 l 1010 1010 l 1010 0 l 758 0 l 758 505 l 379 505 l 379 0 l 126 0 z "},"а":{"ha":1073,"x_min":126,"x_max":1010,"o":"m 758 126 l 758 252 l 379 252 l 379 126 l 758 126 m 252 0 l 252 126 l 126 126 l 126 252 l 252 252 l 252 379 l 758 379 l 758 505 l 252 505 l 252 631 l 884 631 l 884 505 l 1010 505 l 1010 0 l 252 0 z "},"б":{"ha":1073,"x_min":126,"x_max":1010,"o":"m 758 126 l 758 505 l 631 505 l 631 379 l 379 379 l 379 126 l 758 126 m 252 0 l 252 126 l 126 126 l 126 884 l 252 884 l 252 1010 l 884 1010 l 884 884 l 379 884 l 379 505 l 505 505 l 505 631 l 884 631 l 884 505 l 1010 505 l 1010 126 l 884 126 l 884 0 l 252 0 z "},"в":{"ha":1073,"x_min":126,"x_max":1010,"o":"m 758 126 l 758 252 l 379 252 l 379 126 l 758 126 m 758 379 l 758 505 l 379 505 l 379 379 l 758 379 m 126 0 l 126 631 l 884 631 l 884 505 l 1010 505 l 1010 379 l 884 379 l 884 252 l 1010 252 l 1010 126 l 884 126 l 884 0 l 126 0 z "},"г":{"ha":821,"x_min":126,"x_max":758,"o":"m 126 0 l 126 631 l 758 631 l 758 505 l 379 505 l 379 0 l 126 0 z "},"д":{"ha":1199,"x_min":126,"x_max":1136,"o":"m 758 126 l 758 505 l 505 505 l 505 126 l 758 126 m 126 -189 l 126 126 l 252 126 l 252 505 l 379 505 l 379 631 l 1010 631 l 1010 126 l 1136 126 l 1136 -189 l 884 -189 l 884 0 l 379 0 l 379 -189 l 126 -189 z "},"е":{"ha":1073,"x_min":126,"x_max":1010,"o":"m 758 379 l 758 505 l 379 505 l 379 379 l 758 379 m 252 0 l 252 126 l 126 126 l 126 505 l 252 505 l 252 631 l 884 631 l 884 505 l 1010 505 l 1010 252 l 379 252 l 379 126 l 884 126 l 884 0 l 252 0 z "},"ж":{"ha":1199,"x_min":126,"x_max":1136,"o":"m 126 0 l 126 252 l 252 252 l 252 379 l 126 379 l 126 631 l 379 631 l 379 379 l 505 379 l 505 631 l 758 631 l 758 379 l 884 379 l 884 631 l 1136 631 l 1136 379 l 1010 379 l 1010 252 l 1136 252 l 1136 0 l 884 0 l 884 252 l 758 252 l 758 0 l 505 0 l 505 252 l 379 252 l 379 0 l 126 0 z "},"з":{"ha":1073,"x_min":126,"x_max":1010,"o":"m 252 0 l 252 126 l 126 126 l 126 252 l 379 252 l 379 126 l 758 126 l 758 252 l 505 252 l 505 379 l 758 379 l 758 505 l 379 505 l 379 379 l 126 379 l 126 505 l 252 505 l 252 631 l 884 631 l 884 505 l 1010 505 l 1010 379 l 884 379 l 884 252 l 1010 252 l 1010 126 l 884 126 l 884 0 l 252 0 z "},"и":{"ha":1073,"x_min":126,"x_max":1010,"o":"m 126 0 l 126 631 l 379 631 l 379 315 l 505 315 l 505 442 l 631 442 l 631 568 l 758 568 l 758 631 l 1010 631 l 1010 0 l 758 0 l 758 315 l 631 315 l 631 189 l 505 189 l 505 63 l 379 63 l 379 0 l 126 0 z "},"й":{"ha":1073,"x_min":126,"x_max":1010,"o":"m 126 0 l 126 631 l 379 631 l 379 315 l 505 315 l 505 442 l 631 442 l 631 568 l 758 568 l 758 631 l 1010 631 l 1010 0 l 758 0 l 758 315 l 631 315 l 631 189 l 505 189 l 505 63 l 379 63 l 379 0 l 126 0 m 315 758 l 315 884 l 189 884 l 189 1010 l 442 1010 l 442 884 l 694 884 l 694 1010 l 947 1010 l 947 884 l 821 884 l 821 758 l 315 758 z "},"к":{"ha":947,"x_min":126,"x_max":884,"o":"m 126 0 l 126 631 l 379 631 l 379 379 l 505 379 l 505 505 l 631 505 l 631 631 l 884 631 l 884 505 l 758 505 l 758 379 l 631 379 l 631 252 l 758 252 l 758 126 l 884 126 l 884 0 l 631 0 l 631 126 l 505 126 l 505 252 l 379 252 l 379 0 l 126 0 z "},"л":{"ha":1073,"x_min":126,"x_max":1010,"o":"m 126 0 l 126 126 l 252 126 l 252 505 l 379 505 l 379 631 l 1010 631 l 1010 0 l 758 0 l 758 505 l 505 505 l 505 126 l 379 126 l 379 0 l 126 0 z "},"м":{"ha":1073,"x_min":126,"x_max":1010,"o":"m 126 0 l 126 631 l 379 631 l 379 505 l 505 505 l 505 379 l 631 379 l 631 505 l 758 505 l 758 631 l 1010 631 l 1010 0 l 758 0 l 758 252 l 631 252 l 631 126 l 505 126 l 505 252 l 379 252 l 379 0 l 126 0 z "},"н":{"ha":1073,"x_min":126,"x_max":1010,"o":"m 126 0 l 126 631 l 379 631 l 379 379 l 758 379 l 758 631 l 1010 631 l 1010 0 l 758 0 l 758 252 l 379 252 l 379 0 l 126 0 z "},"о":{"ha":1073,"x_min":126,"x_max":1010,"o":"m 758 126 l 758 505 l 379 505 l 379 126 l 758 126 m 252 0 l 252 126 l 126 126 l 126 505 l 252 505 l 252 631 l 884 631 l 884 505 l 1010 505 l 1010 126 l 884 126 l 884 0 l 252 0 z "},"п":{"ha":1073,"x_min":126,"x_max":1010,"o":"m 126 0 l 126 631 l 1010 631 l 1010 0 l 758 0 l 758 505 l 379 505 l 379 0 l 126 0 z "},"р":{"ha":1073,"x_min":126,"x_max":1010,"o":"m 758 126 l 758 505 l 379 505 l 379 126 l 758 126 m 126 -379 l 126 631 l 884 631 l 884 505 l 1010 505 l 1010 126 l 884 126 l 884 0 l 379 0 l 379 -379 l 126 -379 z "},"с":{"ha":1073,"x_min":126,"x_max":1010,"o":"m 252 0 l 252 126 l 126 126 l 126 505 l 252 505 l 252 631 l 884 631 l 884 505 l 1010 505 l 1010 379 l 758 379 l 758 505 l 379 505 l 379 126 l 758 126 l 758 252 l 1010 252 l 1010 126 l 884 126 l 884 0 l 252 0 z "},"т":{"ha":947,"x_min":126,"x_max":884,"o":"m 379 0 l 379 505 l 126 505 l 126 631 l 884 631 l 884 505 l 631 505 l 631 0 l 379 0 z "},"у":{"ha":1073,"x_min":126,"x_max":1010,"o":"m 252 -379 l 252 -252 l 758 -252 l 758 0 l 252 0 l 252 126 l 126 126 l 126 631 l 379 631 l 379 126 l 758 126 l 758 631 l 1010 631 l 1010 -252 l 884 -252 l 884 -379 l 252 -379 z "},"ф":{"ha":1325,"x_min":126,"x_max":1262,"o":"m 568 126 l 568 505 l 379 505 l 379 126 l 568 126 m 1010 126 l 1010 505 l 821 505 l 821 126 l 1010 126 m 568 -379 l 568 0 l 252 0 l 252 126 l 126 126 l 126 505 l 252 505 l 252 631 l 568 631 l 568 1010 l 821 1010 l 821 631 l 1136 631 l 1136 505 l 1262 505 l 1262 126 l 1136 126 l 1136 0 l 821 0 l 821 -379 l 568 -379 z "},"х":{"ha":1073,"x_min":126,"x_max":1010,"o":"m 126 0 l 126 126 l 252 126 l 252 252 l 379 252 l 379 379 l 252 379 l 252 505 l 126 505 l 126 631 l 379 631 l 379 505 l 505 505 l 505 442 l 631 442 l 631 505 l 758 505 l 758 631 l 1010 631 l 1010 505 l 884 505 l 884 379 l 758 379 l 758 252 l 884 252 l 884 126 l 1010 126 l 1010 0 l 758 0 l 758 126 l 631 126 l 631 189 l 505 189 l 505 126 l 379 126 l 379 0 l 126 0 z "},"ц":{"ha":1199,"x_min":126,"x_max":1136,"o":"m 884 -189 l 884 0 l 126 0 l 126 631 l 379 631 l 379 126 l 758 126 l 758 631 l 1010 631 l 1010 126 l 1136 126 l 1136 -189 l 884 -189 z "},"ч":{"ha":1073,"x_min":126,"x_max":1010,"o":"m 758 0 l 758 189 l 252 189 l 252 315 l 126 315 l 126 631 l 379 631 l 379 315 l 758 315 l 758 631 l 1010 631 l 1010 0 l 758 0 z "},"ш":{"ha":1199,"x_min":126,"x_max":1136,"o":"m 126 0 l 126 631 l 379 631 l 379 126 l 505 126 l 505 631 l 758 631 l 758 126 l 884 126 l 884 631 l 1136 631 l 1136 0 l 126 0 z "},"щ":{"ha":1325,"x_min":126,"x_max":1262,"o":"m 1010 -189 l 1010 0 l 126 0 l 126 631 l 379 631 l 379 126 l 505 126 l 505 631 l 758 631 l 758 126 l 884 126 l 884 631 l 1136 631 l 1136 126 l 1262 126 l 1262 -189 l 1010 -189 z "},"ъ":{"ha":1262,"x_min":126,"x_max":1199,"o":"m 947 126 l 947 252 l 568 252 l 568 126 l 947 126 m 315 0 l 315 505 l 126 505 l 126 631 l 568 631 l 568 379 l 1073 379 l 1073 252 l 1199 252 l 1199 126 l 1073 126 l 1073 0 l 315 0 z "},"ы":{"ha":1325,"x_min":126,"x_max":1262,"o":"m 631 126 l 631 252 l 379 252 l 379 126 l 631 126 m 126 0 l 126 631 l 379 631 l 379 379 l 758 379 l 758 252 l 884 252 l 884 126 l 758 126 l 758 0 l 126 0 m 1010 0 l 1010 631 l 1262 631 l 1262 0 l 1010 0 z "},"ь":{"ha":1073,"x_min":126,"x_max":1010,"o":"m 758 126 l 758 252 l 379 252 l 379 126 l 758 126 m 126 0 l 126 631 l 379 631 l 379 379 l 884 379 l 884 252 l 1010 252 l 1010 126 l 884 126 l 884 0 l 126 0 z "},"э":{"ha":1073,"x_min":126,"x_max":1010,"o":"m 252 0 l 252 126 l 126 126 l 126 252 l 379 252 l 379 126 l 758 126 l 758 252 l 505 252 l 505 379 l 758 379 l 758 505 l 379 505 l 379 379 l 126 379 l 126 505 l 252 505 l 252 631 l 884 631 l 884 505 l 1010 505 l 1010 126 l 884 126 l 884 0 l 252 0 z "},"ю":{"ha":1452,"x_min":126,"x_max":1389,"o":"m 1136 126 l 1136 505 l 758 505 l 758 126 l 1136 126 m 126 0 l 126 631 l 379 631 l 379 379 l 505 379 l 505 505 l 631 505 l 631 631 l 1262 631 l 1262 505 l 1389 505 l 1389 126 l 1262 126 l 1262 0 l 631 0 l 631 126 l 505 126 l 505 252 l 379 252 l 379 0 l 126 0 z "},"я":{"ha":1073,"x_min":126,"x_max":1010,"o":"m 758 379 l 758 505 l 379 505 l 379 379 l 758 379 m 126 0 l 126 252 l 252 252 l 252 379 l 126 379 l 126 505 l 252 505 l 252 631 l 1010 631 l 1010 0 l 758 0 l 758 252 l 379 252 l 379 0 l 126 0 z "},"ѐ":{"ha":1073,"x_min":126,"x_max":1010,"o":"m 758 379 l 758 505 l 379 505 l 379 379 l 758 379 m 252 0 l 252 126 l 126 126 l 126 505 l 252 505 l 252 631 l 884 631 l 884 505 l 1010 505 l 1010 252 l 379 252 l 379 126 l 884 126 l 884 0 l 252 0 m 442 758 l 442 884 l 315 884 l 315 1010 l 568 1010 l 568 884 l 694 884 l 694 758 l 442 758 z "},"ё":{"ha":1073,"x_min":126,"x_max":1010,"o":"m 758 379 l 758 505 l 379 505 l 379 379 l 758 379 m 252 0 l 252 126 l 126 126 l 126 505 l 252 505 l 252 631 l 884 631 l 884 505 l 1010 505 l 1010 252 l 379 252 l 379 126 l 884 126 l 884 0 l 252 0 m 252 758 l 252 1010 l 505 1010 l 505 758 l 252 758 m 631 758 l 631 1010 l 884 1010 l 884 758 l 631 758 z "},"ѓ":{"ha":821,"x_min":126,"x_max":758,"o":"m 126 0 l 126 631 l 758 631 l 758 505 l 379 505 l 379 0 l 126 0 m 315 758 l 315 884 l 442 884 l 442 1010 l 694 1010 l 694 884 l 568 884 l 568 758 l 315 758 z "},"є":{"ha":1073,"x_min":126,"x_max":1010,"o":"m 252 0 l 252 126 l 126 126 l 126 505 l 252 505 l 252 631 l 884 631 l 884 505 l 1010 505 l 1010 379 l 758 379 l 758 505 l 379 505 l 379 379 l 631 379 l 631 252 l 379 252 l 379 126 l 758 126 l 758 252 l 1010 252 l 1010 126 l 884 126 l 884 0 l 252 0 z "},"і":{"ha":442,"x_min":126,"x_max":379,"o":"m 126 0 l 126 631 l 379 631 l 379 0 l 126 0 m 126 758 l 126 1010 l 379 1010 l 379 758 l 126 758 z "},"ї":{"ha":631,"x_min":-63,"x_max":568,"o":"m 126 0 l 126 631 l 379 631 l 379 0 l 126 0 m -63 758 l -63 1010 l 189 1010 l 189 758 l -63 758 m 315 758 l 315 1010 l 568 1010 l 568 758 l 315 758 z "},"љ":{"ha":1578,"x_min":126,"x_max":1515,"o":"m 1262 126 l 1262 252 l 1010 252 l 1010 126 l 1262 126 m 126 0 l 126 126 l 252 126 l 252 631 l 1010 631 l 1010 379 l 1389 379 l 1389 252 l 1515 252 l 1515 126 l 1389 126 l 1389 0 l 758 0 l 758 505 l 505 505 l 505 126 l 379 126 l 379 0 l 126 0 z "},"њ":{"ha":1578,"x_min":126,"x_max":1515,"o":"m 1262 126 l 1262 252 l 1010 252 l 1010 126 l 1262 126 m 126 0 l 126 631 l 379 631 l 379 379 l 758 379 l 758 631 l 1010 631 l 1010 379 l 1389 379 l 1389 252 l 1515 252 l 1515 126 l 1389 126 l 1389 0 l 758 0 l 758 252 l 379 252 l 379 0 l 126 0 z "},"ћ":{"ha":1073,"x_min":0,"x_max":1010,"o":"m 126 0 l 126 758 l 0 758 l 0 884 l 126 884 l 126 1010 l 379 1010 l 379 884 l 631 884 l 631 758 l 379 758 l 379 505 l 505 505 l 505 631 l 884 631 l 884 505 l 1010 505 l 1010 0 l 758 0 l 758 505 l 631 505 l 631 379 l 379 379 l 379 0 l 126 0 z "},"ќ":{"ha":947,"x_min":126,"x_max":884,"o":"m 126 0 l 126 631 l 379 631 l 379 379 l 505 379 l 505 505 l 631 505 l 631 631 l 884 631 l 884 505 l 758 505 l 758 379 l 631 379 l 631 252 l 758 252 l 758 126 l 884 126 l 884 0 l 631 0 l 631 126 l 505 126 l 505 252 l 379 252 l 379 0 l 126 0 m 379 758 l 379 884 l 505 884 l 505 1010 l 758 1010 l 758 884 l 631 884 l 631 758 l 379 758 z "},"ѝ":{"ha":1073,"x_min":126,"x_max":1010,"o":"m 126 0 l 126 631 l 379 631 l 379 315 l 505 315 l 505 442 l 631 442 l 631 568 l 758 568 l 758 631 l 1010 631 l 1010 0 l 758 0 l 758 315 l 631 315 l 631 189 l 505 189 l 505 63 l 379 63 l 379 0 l 126 0 m 442 758 l 442 884 l 315 884 l 315 1010 l 568 1010 l 568 884 l 694 884 l 694 758 l 442 758 z "},"ў":{"ha":1073,"x_min":126,"x_max":1010,"o":"m 252 -379 l 252 -252 l 758 -252 l 758 0 l 252 0 l 252 126 l 126 126 l 126 631 l 379 631 l 379 126 l 758 126 l 758 631 l 1010 631 l 1010 -252 l 884 -252 l 884 -379 l 252 -379 m 315 758 l 315 884 l 189 884 l 189 1010 l 442 1010 l 442 884 l 694 884 l 694 1010 l 947 1010 l 947 884 l 821 884 l 821 758 l 315 758 z "},"Ґ":{"ha":947,"x_min":126,"x_max":884,"o":"m 126 0 l 126 1010 l 631 1010 l 631 1199 l 884 1199 l 884 884 l 379 884 l 379 0 l 126 0 z "},"ґ":{"ha":821,"x_min":126,"x_max":758,"o":"m 126 0 l 126 631 l 505 631 l 505 821 l 758 821 l 758 505 l 379 505 l 379 0 l 126 0 z "},"Ғ":{"ha":947,"x_min":0,"x_max":884,"o":"m 126 0 l 126 505 l 0 505 l 0 631 l 126 631 l 126 1010 l 884 1010 l 884 884 l 379 884 l 379 631 l 631 631 l 631 505 l 379 505 l 379 0 l 126 0 z "},"ғ":{"ha":821,"x_min":0,"x_max":758,"o":"m 126 0 l 126 252 l 0 252 l 0 379 l 126 379 l 126 631 l 758 631 l 758 505 l 379 505 l 379 379 l 631 379 l 631 252 l 379 252 l 379 0 l 126 0 z "},"Җ":{"ha":1325,"x_min":126,"x_max":1262,"o":"m 1010 -189 l 1010 0 l 884 0 l 884 442 l 758 442 l 758 0 l 505 0 l 505 442 l 379 442 l 379 0 l 126 0 l 126 442 l 252 442 l 252 568 l 126 568 l 126 1010 l 379 1010 l 379 568 l 505 568 l 505 1010 l 758 1010 l 758 568 l 884 568 l 884 1010 l 1136 1010 l 1136 568 l 1010 568 l 1010 442 l 1136 442 l 1136 126 l 1262 126 l 1262 -189 l 1010 -189 z "},"җ":{"ha":1325,"x_min":126,"x_max":1262,"o":"m 1010 -189 l 1010 0 l 884 0 l 884 252 l 758 252 l 758 0 l 505 0 l 505 252 l 379 252 l 379 0 l 126 0 l 126 252 l 252 252 l 252 379 l 126 379 l 126 631 l 379 631 l 379 379 l 505 379 l 505 631 l 758 631 l 758 379 l 884 379 l 884 631 l 1136 631 l 1136 379 l 1010 379 l 1010 252 l 1136 252 l 1136 126 l 1262 126 l 1262 -189 l 1010 -189 z "},"Қ":{"ha":1199,"x_min":126,"x_max":1136,"o":"m 884 -189 l 884 0 l 758 0 l 758 252 l 631 252 l 631 379 l 505 379 l 505 505 l 379 505 l 379 0 l 126 0 l 126 1010 l 379 1010 l 379 631 l 505 631 l 505 758 l 631 758 l 631 884 l 758 884 l 758 1010 l 1010 1010 l 1010 884 l 884 884 l 884 758 l 758 758 l 758 631 l 631 631 l 631 505 l 758 505 l 758 379 l 884 379 l 884 252 l 1010 252 l 1010 126 l 1136 126 l 1136 -189 l 884 -189 z "},"қ":{"ha":1136,"x_min":126,"x_max":1073,"o":"m 821 -189 l 821 0 l 631 0 l 631 126 l 505 126 l 505 252 l 379 252 l 379 0 l 126 0 l 126 631 l 379 631 l 379 379 l 505 379 l 505 505 l 694 505 l 694 631 l 947 631 l 947 505 l 758 505 l 758 379 l 631 379 l 631 252 l 758 252 l 758 126 l 1073 126 l 1073 -189 l 821 -189 z "},"Ҝ":{"ha":1199,"x_min":126,"x_max":1136,"o":"m 126 0 l 126 1010 l 379 1010 l 379 631 l 442 631 l 442 884 l 568 884 l 568 631 l 631 631 l 631 758 l 758 758 l 758 884 l 884 884 l 884 1010 l 1136 1010 l 1136 884 l 1010 884 l 1010 758 l 884 758 l 884 631 l 758 631 l 758 505 l 884 505 l 884 379 l 1010 379 l 1010 252 l 1136 252 l 1136 0 l 884 0 l 884 252 l 758 252 l 758 379 l 631 379 l 631 505 l 568 505 l 568 252 l 442 252 l 442 505 l 379 505 l 379 0 l 126 0 z "},"ҝ":{"ha":1073,"x_min":126,"x_max":1010,"o":"m 126 0 l 126 631 l 379 631 l 379 379 l 442 379 l 442 505 l 568 505 l 568 379 l 631 379 l 631 505 l 758 505 l 758 631 l 1010 631 l 1010 505 l 884 505 l 884 379 l 758 379 l 758 252 l 884 252 l 884 126 l 1010 126 l 1010 0 l 758 0 l 758 126 l 631 126 l 631 252 l 568 252 l 568 126 l 442 126 l 442 252 l 379 252 l 379 0 l 126 0 z "},"Ҟ":{"ha":1073,"x_min":0,"x_max":1010,"o":"m 126 0 l 126 758 l 0 758 l 0 884 l 126 884 l 126 1010 l 379 1010 l 379 884 l 505 884 l 505 758 l 379 758 l 379 631 l 505 631 l 505 758 l 631 758 l 631 884 l 758 884 l 758 1010 l 1010 1010 l 1010 884 l 884 884 l 884 758 l 758 758 l 758 631 l 631 631 l 631 505 l 758 505 l 758 379 l 884 379 l 884 252 l 1010 252 l 1010 0 l 758 0 l 758 252 l 631 252 l 631 379 l 505 379 l 505 505 l 379 505 l 379 0 l 126 0 z "},"ҟ":{"ha":1010,"x_min":0,"x_max":947,"o":"m 126 0 l 126 694 l 0 694 l 0 821 l 126 821 l 126 1010 l 379 1010 l 379 821 l 505 821 l 505 694 l 379 694 l 379 379 l 505 379 l 505 505 l 694 505 l 694 631 l 947 631 l 947 505 l 758 505 l 758 379 l 631 379 l 631 252 l 758 252 l 758 126 l 884 126 l 884 0 l 631 0 l 631 126 l 505 126 l 505 252 l 379 252 l 379 0 l 126 0 z "},"Ҡ":{"ha":1262,"x_min":126,"x_max":1199,"o":"m 315 0 l 315 884 l 126 884 l 126 1010 l 568 1010 l 568 631 l 694 631 l 694 758 l 821 758 l 821 884 l 947 884 l 947 1010 l 1199 1010 l 1199 884 l 1073 884 l 1073 758 l 947 758 l 947 631 l 821 631 l 821 505 l 947 505 l 947 379 l 1073 379 l 1073 252 l 1199 252 l 1199 0 l 947 0 l 947 252 l 821 252 l 821 379 l 694 379 l 694 505 l 568 505 l 568 0 l 315 0 z "},"ҡ":{"ha":1199,"x_min":126,"x_max":1136,"o":"m 315 0 l 315 505 l 126 505 l 126 631 l 568 631 l 568 379 l 694 379 l 694 505 l 821 505 l 821 631 l 1136 631 l 1136 505 l 947 505 l 947 379 l 821 379 l 821 252 l 947 252 l 947 126 l 1136 126 l 1136 0 l 821 0 l 821 126 l 694 126 l 694 252 l 568 252 l 568 0 l 315 0 z "},"Ң":{"ha":1199,"x_min":126,"x_max":1136,"o":"m 884 -189 l 884 0 l 758 0 l 758 505 l 379 505 l 379 0 l 126 0 l 126 1010 l 379 1010 l 379 631 l 758 631 l 758 1010 l 1010 1010 l 1010 126 l 1136 126 l 1136 -189 l 884 -189 z "},"ң":{"ha":1199,"x_min":126,"x_max":1136,"o":"m 884 -189 l 884 0 l 758 0 l 758 252 l 379 252 l 379 0 l 126 0 l 126 631 l 379 631 l 379 379 l 758 379 l 758 631 l 1010 631 l 1010 126 l 1136 126 l 1136 -189 l 884 -189 z "},"Ҥ":{"ha":1262,"x_min":126,"x_max":1199,"o":"m 126 0 l 126 1010 l 379 1010 l 379 631 l 758 631 l 758 1010 l 1199 1010 l 1199 884 l 1010 884 l 1010 0 l 758 0 l 758 505 l 379 505 l 379 0 l 126 0 z "},"ҥ":{"ha":1325,"x_min":126,"x_max":1262,"o":"m 126 0 l 126 631 l 379 631 l 379 379 l 758 379 l 758 631 l 1262 631 l 1262 505 l 1010 505 l 1010 0 l 758 0 l 758 252 l 379 252 l 379 0 l 126 0 z "},"Ҭ":{"ha":1073,"x_min":126,"x_max":1010,"o":"m 631 -189 l 631 0 l 442 0 l 442 884 l 126 884 l 126 1010 l 1010 1010 l 1010 884 l 694 884 l 694 126 l 884 126 l 884 -189 l 631 -189 z "},"ҭ":{"ha":947,"x_min":126,"x_max":884,"o":"m 568 -189 l 568 0 l 379 0 l 379 505 l 126 505 l 126 631 l 884 631 l 884 505 l 631 505 l 631 126 l 821 126 l 821 -189 l 568 -189 z "},"‘":{"ha":568,"x_min":126,"x_max":505,"o":"m 126 631 l 126 884 l 252 884 l 252 1010 l 505 1010 l 505 884 l 379 884 l 379 631 l 126 631 z "},"’":{"ha":442,"x_min":0,"x_max":379,"o":"m 0 631 l 0 758 l 126 758 l 126 1010 l 379 1010 l 379 758 l 252 758 l 252 631 l 0 631 z "},"“":{"ha":947,"x_min":126,"x_max":884,"o":"m 126 631 l 126 884 l 252 884 l 252 1010 l 505 1010 l 505 884 l 379 884 l 379 631 l 126 631 m 505 631 l 505 884 l 631 884 l 631 1010 l 884 1010 l 884 884 l 758 884 l 758 631 l 505 631 z "},"”":{"ha":821,"x_min":0,"x_max":758,"o":"m 0 631 l 0 758 l 126 758 l 126 1010 l 379 1010 l 379 758 l 252 758 l 252 631 l 0 631 m 379 631 l 379 758 l 505 758 l 505 1010 l 758 1010 l 758 758 l 631 758 l 631 631 l 379 631 z "},"€":{"ha":1199,"x_min":63,"x_max":1136,"o":"m 442 0 l 442 126 l 315 126 l 315 252 l 252 252 l 252 315 l 63 315 l 63 379 l 126 379 l 126 442 l 252 442 l 252 505 l 63 505 l 63 568 l 126 568 l 126 631 l 252 631 l 252 758 l 379 758 l 379 884 l 505 884 l 505 1010 l 1010 1010 l 1010 884 l 1136 884 l 1136 758 l 884 758 l 884 884 l 631 884 l 631 758 l 505 758 l 505 631 l 821 631 l 821 568 l 758 568 l 758 505 l 505 505 l 505 442 l 821 442 l 821 379 l 758 379 l 758 315 l 505 315 l 505 252 l 631 252 l 631 126 l 884 126 l 884 252 l 1136 252 l 1136 126 l 1010 126 l 1010 0 l 442 0 z "},"™":{"ha":1325,"x_min":126,"x_max":1262,"o":"m 884 631 l 884 758 l 1010 758 l 1010 631 l 884 631 m 315 505 l 315 884 l 126 884 l 126 1010 l 758 1010 l 758 884 l 884 884 l 884 758 l 758 758 l 758 505 l 631 505 l 631 884 l 442 884 l 442 505 l 315 505 m 1136 505 l 1136 758 l 1010 758 l 1010 884 l 1136 884 l 1136 1010 l 1262 1010 l 1262 505 l 1136 505 z "},"ﬀ":{"ha":1325,"x_min":126,"x_max":1262,"o":"m 252 0 l 252 505 l 126 505 l 126 631 l 252 631 l 252 884 l 379 884 l 379 1010 l 758 1010 l 758 884 l 505 884 l 505 631 l 758 631 l 758 884 l 884 884 l 884 1010 l 1262 1010 l 1262 884 l 1010 884 l 1010 631 l 1262 631 l 1262 505 l 1010 505 l 1010 0 l 758 0 l 758 505 l 505 505 l 505 0 l 252 0 z "},"ﬁ":{"ha":1073,"x_min":126,"x_max":1010,"o":"m 252 0 l 252 505 l 126 505 l 126 631 l 252 631 l 252 884 l 379 884 l 379 1010 l 758 1010 l 758 884 l 505 884 l 505 631 l 1010 631 l 1010 0 l 758 0 l 758 505 l 505 505 l 505 0 l 252 0 z "},"ﬂ":{"ha":1199,"x_min":126,"x_max":1136,"o":"m 758 631 l 758 884 l 505 884 l 505 631 l 758 631 m 252 0 l 252 505 l 126 505 l 126 631 l 252 631 l 252 884 l 379 884 l 379 1010 l 1010 1010 l 1010 126 l 1136 126 l 1136 0 l 884 0 l 884 126 l 758 126 l 758 505 l 505 505 l 505 0 l 252 0 z "},"ﬃ":{"ha":1578,"x_min":126,"x_max":1515,"o":"m 252 0 l 252 505 l 126 505 l 126 631 l 252 631 l 252 884 l 379 884 l 379 1010 l 758 1010 l 758 884 l 505 884 l 505 631 l 758 631 l 758 884 l 884 884 l 884 1010 l 1262 1010 l 1262 884 l 1010 884 l 1010 631 l 1515 631 l 1515 0 l 1262 0 l 1262 505 l 1010 505 l 1010 0 l 758 0 l 758 505 l 505 505 l 505 0 l 252 0 z "},"ﬄ":{"ha":1704,"x_min":126,"x_max":1641,"o":"m 1262 631 l 1262 884 l 1010 884 l 1010 631 l 1262 631 m 252 0 l 252 505 l 126 505 l 126 631 l 252 631 l 252 884 l 379 884 l 379 1010 l 758 1010 l 758 884 l 505 884 l 505 631 l 758 631 l 758 884 l 884 884 l 884 1010 l 1515 1010 l 1515 126 l 1641 126 l 1641 0 l 1389 0 l 1389 126 l 1262 126 l 1262 505 l 1010 505 l 1010 0 l 758 0 l 758 505 l 505 505 l 505 0 l 252 0 z "}}}
